<?xml version="1.0" encoding="UTF-8" standalone="no"?>
<!-- Generated by SVGo -->

<svg
   xmlns:dc="http://purl.org/dc/elements/1.1/"
   xmlns:cc="http://creativecommons.org/ns#"
   xmlns:rdf="http://www.w3.org/1999/02/22-rdf-syntax-ns#"
   xmlns:svg="http://www.w3.org/2000/svg"
   xmlns="http://www.w3.org/2000/svg"
   xmlns:sodipodi="http://sodipodi.sourceforge.net/DTD/sodipodi-0.dtd"
   xmlns:inkscape="http://www.inkscape.org/namespaces/inkscape"
   width="112.252mm"
   height="112.252mm"
   viewBox="0.000 0.000 112.252 112.252"
   version="1.1"
   id="svg54"
   sodipodi:docname="5x5.svg"
   inkscape:version="0.92.3 (2405546, 2018-03-11)"
   inkscape:export-filename="C:\Users\Gtrx\Documents\GitHub\Medusa\Plate\5x5\5x5.png"
   inkscape:export-xdpi="400"
   inkscape:export-ydpi="400">
  <metadata
     id="metadata60">
    <rdf:RDF>
      <cc:Work
         rdf:about="">
        <dc:format>image/svg+xml</dc:format>
        <dc:type
           rdf:resource="http://purl.org/dc/dcmitype/StillImage" />
      </cc:Work>
    </rdf:RDF>
  </metadata>
  <defs
     id="defs58" />
  <sodipodi:namedview
     pagecolor="#ffffff"
     bordercolor="#666666"
     borderopacity="1"
     objecttolerance="10"
     gridtolerance="10"
     guidetolerance="10"
     inkscape:pageopacity="0"
     inkscape:pageshadow="2"
     inkscape:window-width="1920"
     inkscape:window-height="1017"
     id="namedview56"
     showgrid="false"
     inkscape:zoom="1.5733502"
     inkscape:cx="-52.326106"
     inkscape:cy="190.22003"
     inkscape:window-x="1912"
     inkscape:window-y="-8"
     inkscape:window-maximized="1"
     inkscape:current-layer="g70" />
  <polygon
     points="102.751,5.001 103.105,5.014 103.455,5.056 103.802,5.125 104.142,5.221 104.474,5.343 104.794,5.491 105.103,5.664 105.397,5.860 105.674,6.079 105.933,6.319 106.173,6.578 106.392,6.855 106.588,7.149 106.761,7.458 106.909,7.778 107.031,8.110 107.127,8.450 107.196,8.797 107.238,9.147 107.252,9.501 107.251,102.751 107.238,103.105 107.196,103.455 107.127,103.802 107.031,104.142 106.909,104.474 106.761,104.794 106.588,105.103 106.392,105.397 106.173,105.674 105.933,105.933 105.674,106.173 105.397,106.392 105.103,106.588 104.794,106.761 104.474,106.909 104.142,107.031 103.802,107.127 103.455,107.196 103.105,107.238 102.751,107.252 9.501,107.251 9.147,107.238 8.797,107.196 8.450,107.127 8.110,107.031 7.778,106.909 7.458,106.761 7.149,106.588 6.855,106.392 6.578,106.173 6.319,105.933 6.079,105.674 5.860,105.397 5.664,105.103 5.491,104.794 5.343,104.474 5.221,104.142 5.125,103.802 5.056,103.455 5.014,103.105 5.000,102.751 5.001,9.501 5.014,9.147 5.056,8.797 5.125,8.450 5.221,8.110 5.343,7.778 5.491,7.458 5.664,7.149 5.860,6.855 6.079,6.578 6.319,6.319 6.578,6.079 6.855,5.860 7.149,5.664 7.458,5.491 7.778,5.343 8.110,5.221 8.450,5.125 8.797,5.056 9.147,5.014 9.501,5.000"
     style="fill:none;stroke-width:0.050000mm;stroke:black"
     id="polygon2" />
  <polygon
     points="11.025,87.226 11.025,101.226 25.026,101.226 25.026,87.226"
     style="fill:none;stroke-width:0.050000mm;stroke:black"
     id="polygon4" />
  <polygon
     points="30.076,87.226 30.076,101.226 44.076,101.226 44.076,87.226"
     style="fill:none;stroke-width:0.050000mm;stroke:black"
     id="polygon6" />
  <polygon
     points="49.126,87.226 49.126,101.226 63.126,101.226 63.126,87.226"
     style="fill:none;stroke-width:0.050000mm;stroke:black"
     id="polygon8" />
  <polygon
     points="68.176,87.226 68.176,101.226 82.176,101.226 82.176,87.226"
     style="fill:none;stroke-width:0.050000mm;stroke:black"
     id="polygon10" />
  <polygon
     points="87.226,87.226 87.226,101.226 101.226,101.226 101.226,87.226"
     style="fill:none;stroke-width:0.050000mm;stroke:black"
     id="polygon12" />
  <polygon
     points="11.025,68.176 11.025,82.176 25.026,82.176 25.026,68.176"
     style="fill:none;stroke-width:0.050000mm;stroke:black"
     id="polygon14" />
  <polygon
     points="30.076,68.176 30.076,82.176 44.076,82.176 44.076,68.176"
     style="fill:none;stroke-width:0.050000mm;stroke:black"
     id="polygon16" />
  <polygon
     points="49.126,68.176 49.126,82.176 63.126,82.176 63.126,68.176"
     style="fill:none;stroke-width:0.050000mm;stroke:black"
     id="polygon18" />
  <polygon
     points="68.176,68.176 68.176,82.176 82.176,82.176 82.176,68.176"
     style="fill:none;stroke-width:0.050000mm;stroke:black"
     id="polygon20" />
  <polygon
     points="87.226,68.176 87.226,82.176 101.226,82.176 101.226,68.176"
     style="fill:none;stroke-width:0.050000mm;stroke:black"
     id="polygon22" />
  <polygon
     points="11.025,49.126 11.025,63.126 25.026,63.126 25.026,49.126"
     style="fill:none;stroke-width:0.050000mm;stroke:black"
     id="polygon24" />
  <polygon
     points="30.076,49.126 30.076,63.126 44.076,63.126 44.076,49.126"
     style="fill:none;stroke-width:0.050000mm;stroke:black"
     id="polygon26" />
  <polygon
     points="49.126,49.126 49.126,63.126 63.126,63.126 63.126,49.126"
     style="fill:none;stroke-width:0.050000mm;stroke:black"
     id="polygon28" />
  <polygon
     points="68.176,49.126 68.176,63.126 82.176,63.126 82.176,49.126"
     style="fill:none;stroke-width:0.050000mm;stroke:black"
     id="polygon30" />
  <polygon
     points="87.226,49.126 87.226,63.126 101.226,63.126 101.226,49.126"
     style="fill:none;stroke-width:0.050000mm;stroke:black"
     id="polygon32" />
  <polygon
     points="11.025,30.076 11.025,44.076 25.026,44.076 25.026,30.076"
     style="fill:none;stroke-width:0.050000mm;stroke:black"
     id="polygon34" />
  <polygon
     points="30.076,30.076 30.076,44.076 44.076,44.076 44.076,30.076"
     style="fill:none;stroke-width:0.050000mm;stroke:black"
     id="polygon36" />
  <polygon
     points="49.126,30.076 49.126,44.076 63.126,44.076 63.126,30.076"
     style="fill:none;stroke-width:0.050000mm;stroke:black"
     id="polygon38" />
  <polygon
     points="68.176,30.076 68.176,44.076 82.176,44.076 82.176,30.076"
     style="fill:none;stroke-width:0.050000mm;stroke:black"
     id="polygon40" />
  <polygon
     points="87.226,30.076 87.226,44.076 101.226,44.076 101.226,30.076"
     style="fill:none;stroke-width:0.050000mm;stroke:black"
     id="polygon42" />
  <polygon
     points="11.025,11.025 11.025,25.026 25.026,25.026 25.026,11.025"
     style="fill:none;stroke-width:0.050000mm;stroke:black"
     id="polygon44" />
  <polygon
     points="30.076,11.025 30.076,25.026 44.076,25.026 44.076,11.025"
     style="fill:none;stroke-width:0.050000mm;stroke:black"
     id="polygon46" />
  <polygon
     points="49.126,11.025 49.126,25.026 63.126,25.026 63.126,11.025"
     style="fill:none;stroke-width:0.050000mm;stroke:black"
     id="polygon48" />
  <polygon
     points="68.176,11.025 68.176,25.026 82.176,25.026 82.176,11.025"
     style="fill:none;stroke-width:0.050000mm;stroke:black"
     id="polygon50" />
  <polygon
     points="87.226,11.025 87.226,25.026 101.226,25.026 101.226,11.025"
     style="fill:none;stroke-width:0.050000mm;stroke:black"
     id="polygon52" />
  <g
     id="g70"
     transform="translate(113.95076,1.7216058)">
    <polygon
       transform="translate(-194.15364,18.443089)"
       id="polygon48-3-9"
       style="fill:none;stroke:#000000;stroke-width:0.05mm"
       points="107.75,8.55 108.075,8.498 108.368,8.349 108.6,8.117 108.749,7.824 108.801,7.5 108.749,7.175 108.6,6.882 108.368,6.65 108.075,6.501 107.75,6.45 107.426,6.501 107.133,6.65 106.901,6.882 106.752,7.175 106.7,7.5 106.752,7.824 106.901,8.117 107.133,8.349 107.426,8.498 " />
    <polygon
       transform="translate(-136.95632,18.327475)"
       id="polygon48-3-0"
       style="fill:none;stroke:#000000;stroke-width:0.05mm"
       points="107.75,8.55 108.075,8.498 108.368,8.349 108.6,8.117 108.749,7.824 108.801,7.5 108.749,7.175 108.6,6.882 108.368,6.65 108.075,6.501 107.75,6.45 107.426,6.501 107.133,6.65 106.901,6.882 106.752,7.175 106.7,7.5 106.752,7.824 106.901,8.117 107.133,8.349 107.426,8.498 " />
    <polygon
       transform="translate(-194.23081,76.400755)"
       id="polygon48-3-7"
       style="fill:none;stroke:#000000;stroke-width:0.05mm"
       points="107.75,8.55 108.075,8.498 108.368,8.349 108.6,8.117 108.749,7.824 108.801,7.5 108.749,7.175 108.6,6.882 108.368,6.65 108.075,6.501 107.75,6.45 107.426,6.501 107.133,6.65 106.901,6.882 106.752,7.175 106.7,7.5 106.752,7.824 106.901,8.117 107.133,8.349 107.426,8.498 " />
    <polygon
       transform="translate(-156.03621,76.189055)"
       id="polygon48-3-92"
       style="fill:none;stroke:#000000;stroke-width:0.05mm"
       points="108.075,8.498 108.368,8.349 108.6,8.117 108.749,7.824 108.801,7.5 108.749,7.175 108.6,6.882 108.368,6.65 108.075,6.501 107.75,6.45 107.426,6.501 107.133,6.65 106.901,6.882 106.752,7.175 106.7,7.5 106.752,7.824 106.901,8.117 107.133,8.349 107.426,8.498 107.75,8.55 " />
    <polygon
       transform="translate(-137.07193,56.616674)"
       id="polygon48-3-5"
       style="fill:none;stroke:#000000;stroke-width:0.05mm"
       points="107.75,8.55 108.075,8.498 108.368,8.349 108.6,8.117 108.749,7.824 108.801,7.5 108.749,7.175 108.6,6.882 108.368,6.65 108.075,6.501 107.75,6.45 107.426,6.501 107.133,6.65 106.901,6.882 106.752,7.175 106.7,7.5 106.752,7.824 106.901,8.117 107.133,8.349 107.426,8.498 " />
    <polygon
       transform="translate(-175.1194,56.616674)"
       id="polygon48-3-8"
       style="fill:none;stroke:#000000;stroke-width:0.05mm"
       points="107.75,8.55 108.075,8.498 108.368,8.349 108.6,8.117 108.749,7.824 108.801,7.5 108.749,7.175 108.6,6.882 108.368,6.65 108.075,6.501 107.75,6.45 107.426,6.501 107.133,6.65 106.901,6.882 106.752,7.175 106.7,7.5 106.752,7.824 106.901,8.117 107.133,8.349 107.426,8.498 " />
  </g>
</svg>
