<?xml version="1.0" encoding="UTF-8" standalone="no"?>
<!-- Generated by SVGo -->

<svg
   xmlns:dc="http://purl.org/dc/elements/1.1/"
   xmlns:cc="http://creativecommons.org/ns#"
   xmlns:rdf="http://www.w3.org/1999/02/22-rdf-syntax-ns#"
   xmlns:svg="http://www.w3.org/2000/svg"
   xmlns="http://www.w3.org/2000/svg"
   xmlns:sodipodi="http://sodipodi.sourceforge.net/DTD/sodipodi-0.dtd"
   xmlns:inkscape="http://www.inkscape.org/namespaces/inkscape"
   width="112.252mm"
   height="112.252mm"
   viewBox="0.000 0.000 112.252 112.252"
   version="1.1"
   id="svg54"
   sodipodi:docname="bottom plate.svg"
   inkscape:version="0.92.3 (2405546, 2018-03-11)"
   inkscape:export-filename="C:\Users\Gtrx\Documents\GitHub\Medusa\Plate\5x5\bottom plate.png"
   inkscape:export-xdpi="400"
   inkscape:export-ydpi="400">
  <metadata
     id="metadata60">
    <rdf:RDF>
      <cc:Work
         rdf:about="">
        <dc:format>image/svg+xml</dc:format>
        <dc:type
           rdf:resource="http://purl.org/dc/dcmitype/StillImage" />
      </cc:Work>
    </rdf:RDF>
  </metadata>
  <defs
     id="defs58" />
  <sodipodi:namedview
     pagecolor="#ffffff"
     bordercolor="#666666"
     borderopacity="1"
     objecttolerance="10"
     gridtolerance="10"
     guidetolerance="10"
     inkscape:pageopacity="0"
     inkscape:pageshadow="2"
     inkscape:window-width="1920"
     inkscape:window-height="1017"
     id="namedview56"
     showgrid="false"
     inkscape:zoom="1.5733502"
     inkscape:cx="-52.326106"
     inkscape:cy="190.22003"
     inkscape:window-x="1912"
     inkscape:window-y="-8"
     inkscape:window-maximized="1"
     inkscape:current-layer="svg54" />
  <polygon
     points="102.751,5.001 103.105,5.014 103.455,5.056 103.802,5.125 104.142,5.221 104.474,5.343 104.794,5.491 105.103,5.664 105.397,5.860 105.674,6.079 105.933,6.319 106.173,6.578 106.392,6.855 106.588,7.149 106.761,7.458 106.909,7.778 107.031,8.110 107.127,8.450 107.196,8.797 107.238,9.147 107.252,9.501 107.251,102.751 107.238,103.105 107.196,103.455 107.127,103.802 107.031,104.142 106.909,104.474 106.761,104.794 106.588,105.103 106.392,105.397 106.173,105.674 105.933,105.933 105.674,106.173 105.397,106.392 105.103,106.588 104.794,106.761 104.474,106.909 104.142,107.031 103.802,107.127 103.455,107.196 103.105,107.238 102.751,107.252 9.501,107.251 9.147,107.238 8.797,107.196 8.450,107.127 8.110,107.031 7.778,106.909 7.458,106.761 7.149,106.588 6.855,106.392 6.578,106.173 6.319,105.933 6.079,105.674 5.860,105.397 5.664,105.103 5.491,104.794 5.343,104.474 5.221,104.142 5.125,103.802 5.056,103.455 5.014,103.105 5.000,102.751 5.001,9.501 5.014,9.147 5.056,8.797 5.125,8.450 5.221,8.110 5.343,7.778 5.491,7.458 5.664,7.149 5.860,6.855 6.079,6.578 6.319,6.319 6.578,6.079 6.855,5.860 7.149,5.664 7.458,5.491 7.778,5.343 8.110,5.221 8.450,5.125 8.797,5.056 9.147,5.014 9.501,5.000"
     style="fill:none;stroke-width:0.050000mm;stroke:black"
     id="polygon2" />
  <g
     id="g70"
     transform="translate(113.95076,1.7216058)">
    <polygon
       transform="translate(-194.15364,18.443089)"
       id="polygon48-3-9"
       style="fill:none;stroke:#000000;stroke-width:0.05mm"
       points="107.75,8.55 108.075,8.498 108.368,8.349 108.6,8.117 108.749,7.824 108.801,7.5 108.749,7.175 108.6,6.882 108.368,6.65 108.075,6.501 107.75,6.45 107.426,6.501 107.133,6.65 106.901,6.882 106.752,7.175 106.7,7.5 106.752,7.824 106.901,8.117 107.133,8.349 107.426,8.498 " />
    <polygon
       transform="translate(-136.95632,18.327475)"
       id="polygon48-3-0"
       style="fill:none;stroke:#000000;stroke-width:0.05mm"
       points="107.75,8.55 108.075,8.498 108.368,8.349 108.6,8.117 108.749,7.824 108.801,7.5 108.749,7.175 108.6,6.882 108.368,6.65 108.075,6.501 107.75,6.45 107.426,6.501 107.133,6.65 106.901,6.882 106.752,7.175 106.7,7.5 106.752,7.824 106.901,8.117 107.133,8.349 107.426,8.498 " />
    <polygon
       transform="translate(-194.23081,76.400755)"
       id="polygon48-3-7"
       style="fill:none;stroke:#000000;stroke-width:0.05mm"
       points="107.75,8.55 108.075,8.498 108.368,8.349 108.6,8.117 108.749,7.824 108.801,7.5 108.749,7.175 108.6,6.882 108.368,6.65 108.075,6.501 107.75,6.45 107.426,6.501 107.133,6.65 106.901,6.882 106.752,7.175 106.7,7.5 106.752,7.824 106.901,8.117 107.133,8.349 107.426,8.498 " />
    <polygon
       transform="translate(-156.03621,76.189055)"
       id="polygon48-3-92"
       style="fill:none;stroke:#000000;stroke-width:0.05mm"
       points="108.075,8.498 108.368,8.349 108.6,8.117 108.749,7.824 108.801,7.5 108.749,7.175 108.6,6.882 108.368,6.65 108.075,6.501 107.75,6.45 107.426,6.501 107.133,6.65 106.901,6.882 106.752,7.175 106.7,7.5 106.752,7.824 106.901,8.117 107.133,8.349 107.426,8.498 107.75,8.55 " />
    <polygon
       transform="translate(-137.07193,56.616674)"
       id="polygon48-3-5"
       style="fill:none;stroke:#000000;stroke-width:0.05mm"
       points="107.75,8.55 108.075,8.498 108.368,8.349 108.6,8.117 108.749,7.824 108.801,7.5 108.749,7.175 108.6,6.882 108.368,6.65 108.075,6.501 107.75,6.45 107.426,6.501 107.133,6.65 106.901,6.882 106.752,7.175 106.7,7.5 106.752,7.824 106.901,8.117 107.133,8.349 107.426,8.498 " />
    <polygon
       transform="translate(-175.1194,56.616674)"
       id="polygon48-3-8"
       style="fill:none;stroke:#000000;stroke-width:0.05mm"
       points="107.75,8.55 108.075,8.498 108.368,8.349 108.6,8.117 108.749,7.824 108.801,7.5 108.749,7.175 108.6,6.882 108.368,6.65 108.075,6.501 107.75,6.45 107.426,6.501 107.133,6.65 106.901,6.882 106.752,7.175 106.7,7.5 106.752,7.824 106.901,8.117 107.133,8.349 107.426,8.498 " />
  </g>
</svg>
