<?xml version="1.0" encoding="UTF-8" standalone="no"?>
<!-- Generated by SVGo -->

<svg
   xmlns:dc="http://purl.org/dc/elements/1.1/"
   xmlns:cc="http://creativecommons.org/ns#"
   xmlns:rdf="http://www.w3.org/1999/02/22-rdf-syntax-ns#"
   xmlns:svg="http://www.w3.org/2000/svg"
   xmlns="http://www.w3.org/2000/svg"
   xmlns:sodipodi="http://sodipodi.sourceforge.net/DTD/sodipodi-0.dtd"
   xmlns:inkscape="http://www.inkscape.org/namespaces/inkscape"
   width="150.352mm"
   height="112.252mm"
   viewBox="0.000 0.000 150.352 112.252"
   version="1.1"
   id="svg74"
   sodipodi:docname="bottom plate.svg"
   inkscape:version="0.92.3 (2405546, 2018-03-11)"
   inkscape:export-filename="C:\Users\Gtrx\Documents\GitHub\Medusa\Plate\5x7\bottom plate.png"
   inkscape:export-xdpi="400"
   inkscape:export-ydpi="400">
  <metadata
     id="metadata80">
    <rdf:RDF>
      <cc:Work
         rdf:about="">
        <dc:format>image/svg+xml</dc:format>
        <dc:type
           rdf:resource="http://purl.org/dc/dcmitype/StillImage" />
        <dc:title />
      </cc:Work>
    </rdf:RDF>
  </metadata>
  <defs
     id="defs78" />
  <sodipodi:namedview
     pagecolor="#ffffff"
     bordercolor="#666666"
     borderopacity="1"
     objecttolerance="10"
     gridtolerance="10"
     guidetolerance="10"
     inkscape:pageopacity="1"
     inkscape:pageshadow="2"
     inkscape:window-width="1920"
     inkscape:window-height="1017"
     id="namedview76"
     showgrid="false"
     inkscape:zoom="1.4142136"
     inkscape:cx="261.48476"
     inkscape:cy="165.67402"
     inkscape:window-x="1912"
     inkscape:window-y="-8"
     inkscape:window-maximized="1"
     inkscape:current-layer="g610"
     inkscape:pagecheckerboard="true"
     inkscape:measure-start="0,0"
     inkscape:measure-end="0,0" />
  <g
     id="g90"
     transform="translate(-61.754828,-1.402097)">
    <polygon
       transform="translate(-16.802544,20.676744)"
       id="polygon48-1-7"
       style="fill:none;stroke:#000000;stroke-width:0.05mm"
       points="107.426,8.498 107.75,8.55 108.075,8.498 108.368,8.349 108.6,8.117 108.749,7.824 108.801,7.5 108.749,7.175 108.6,6.882 108.368,6.65 108.075,6.501 107.75,6.45 107.426,6.501 107.133,6.65 106.901,6.882 106.752,7.175 106.7,7.5 106.752,7.824 106.901,8.117 107.133,8.349 " />
    <polygon
       transform="translate(-16.906147,79.135775)"
       id="polygon48-1-5"
       style="fill:none;stroke:#000000;stroke-width:0.05mm"
       points="108.368,8.349 108.6,8.117 108.749,7.824 108.801,7.5 108.749,7.175 108.6,6.882 108.368,6.65 108.075,6.501 107.75,6.45 107.426,6.501 107.133,6.65 106.901,6.882 106.752,7.175 106.7,7.5 106.752,7.824 106.901,8.117 107.133,8.349 107.426,8.498 107.75,8.55 108.075,8.498 " />
    <polygon
       transform="translate(78.290525,77.719562)"
       id="polygon48-1-4"
       style="fill:none;stroke:#000000;stroke-width:0.05mm"
       points="107.426,8.498 107.75,8.55 108.075,8.498 108.368,8.349 108.6,8.117 108.749,7.824 108.801,7.5 108.749,7.175 108.6,6.882 108.368,6.65 108.075,6.501 107.75,6.45 107.426,6.501 107.133,6.65 106.901,6.882 106.752,7.175 106.7,7.5 106.752,7.824 106.901,8.117 107.133,8.349 " />
    <polygon
       transform="translate(78.159557,20.715459)"
       id="polygon48-1-2"
       style="fill:none;stroke:#000000;stroke-width:0.05mm"
       points="107.426,8.498 107.75,8.55 108.075,8.498 108.368,8.349 108.6,8.117 108.749,7.824 108.801,7.5 108.749,7.175 108.6,6.882 108.368,6.65 108.075,6.501 107.75,6.45 107.426,6.501 107.133,6.65 106.901,6.882 106.752,7.175 106.7,7.5 106.752,7.824 106.901,8.117 107.133,8.349 " />
    <polygon
       transform="translate(40.174677,20.753818)"
       id="polygon48-1-74"
       style="fill:none;stroke:#000000;stroke-width:0.05mm"
       points="107.426,8.498 107.75,8.55 108.075,8.498 108.368,8.349 108.6,8.117 108.749,7.824 108.801,7.5 108.749,7.175 108.6,6.882 108.368,6.65 108.075,6.501 107.75,6.45 107.426,6.501 107.133,6.65 106.901,6.882 106.752,7.175 106.7,7.5 106.752,7.824 106.901,8.117 107.133,8.349 " />
    <polygon
       transform="translate(40.136998,58.9894)"
       id="polygon48-1-9"
       style="fill:none;stroke:#000000;stroke-width:0.05mm"
       points="107.75,8.55 108.075,8.498 108.368,8.349 108.6,8.117 108.749,7.824 108.801,7.5 108.749,7.175 108.6,6.882 108.368,6.65 108.075,6.501 107.75,6.45 107.426,6.501 107.133,6.65 106.901,6.882 106.752,7.175 106.7,7.5 106.752,7.824 106.901,8.117 107.133,8.349 107.426,8.498 " />
    <polygon
       transform="translate(2.1272629,59.00529)"
       id="polygon48-1-1"
       style="fill:none;stroke:#000000;stroke-width:0.05mm"
       points="107.75,8.55 108.075,8.498 108.368,8.349 108.6,8.117 108.749,7.824 108.801,7.5 108.749,7.175 108.6,6.882 108.368,6.65 108.075,6.501 107.75,6.45 107.426,6.501 107.133,6.65 106.901,6.882 106.752,7.175 106.7,7.5 106.752,7.824 106.901,8.117 107.133,8.349 107.426,8.498 " />
    <polygon
       transform="translate(21.166889,79.151807)"
       id="polygon48-1-23"
       style="fill:none;stroke:#000000;stroke-width:0.05mm"
       points="108.6,8.117 108.749,7.824 108.801,7.5 108.749,7.175 108.6,6.882 108.368,6.65 108.075,6.501 107.75,6.45 107.426,6.501 107.133,6.65 106.901,6.882 106.752,7.175 106.7,7.5 106.752,7.824 106.901,8.117 107.133,8.349 107.426,8.498 107.75,8.55 108.075,8.498 108.368,8.349 " />
  </g>
  <g
     id="g610"
     transform="translate(4.0303504,2.1257211)">
    <polygon
       id="polygon494"
       style="fill:none;stroke:#000000;stroke-width:0.05mm"
       points="137.669,5.097 137.933,5.172 138.191,5.267 138.44,5.382 138.68,5.516 138.909,5.669 139.125,5.839 139.326,6.026 139.513,6.227 139.683,6.443 139.836,6.672 139.97,6.912 140.085,7.161 140.18,7.419 140.255,7.683 140.308,7.953 140.341,8.226 140.352,8.501 140.352,98.751 140.341,99.026 140.308,99.299 140.255,99.569 140.18,99.833 140.085,100.091 139.97,100.34 139.836,100.58 139.683,100.809 139.513,101.025 139.326,101.226 139.125,101.413 138.909,101.583 138.68,101.736 138.44,101.87 138.191,101.985 137.933,102.08 137.669,102.155 137.399,102.208 137.126,102.241 136.852,102.251 8.501,102.251 8.226,102.241 7.953,102.208 7.683,102.155 7.419,102.08 7.161,101.985 6.912,101.87 6.672,101.736 6.443,101.583 6.227,101.413 6.026,101.226 5.839,101.025 5.669,100.809 5.516,100.58 5.382,100.34 5.267,100.091 5.172,99.833 5.097,99.569 5.044,99.299 5.011,99.026 5,98.751 5.001,8.501 5.011,8.226 5.044,7.953 5.097,7.683 5.172,7.419 5.267,7.161 5.382,6.912 5.516,6.672 5.669,6.443 5.839,6.227 6.026,6.026 6.227,5.839 6.443,5.669 6.672,5.516 6.912,5.382 7.161,5.267 7.419,5.172 7.683,5.097 7.953,5.044 8.226,5.011 8.501,5 136.852,5.001 137.126,5.011 137.399,5.044 " />
  </g>
</svg>
