<?xml version="1.0" encoding="UTF-8" standalone="no"?>
<!-- Generated by SVGo -->

<svg
   xmlns:dc="http://purl.org/dc/elements/1.1/"
   xmlns:cc="http://creativecommons.org/ns#"
   xmlns:rdf="http://www.w3.org/1999/02/22-rdf-syntax-ns#"
   xmlns:svg="http://www.w3.org/2000/svg"
   xmlns="http://www.w3.org/2000/svg"
   xmlns:sodipodi="http://sodipodi.sourceforge.net/DTD/sodipodi-0.dtd"
   xmlns:inkscape="http://www.inkscape.org/namespaces/inkscape"
   width="131.302mm"
   height="112.252mm"
   viewBox="0.000 0.000 131.302 112.252"
   version="1.1"
   id="svg64"
   sodipodi:docname="5x6.svg"
   inkscape:version="0.92.3 (2405546, 2018-03-11)"
   inkscape:export-filename="C:\Users\Gtrx\Documents\GitHub\Medusa\Plate\5x6\5x6.png"
   inkscape:export-xdpi="400"
   inkscape:export-ydpi="400">
  <metadata
     id="metadata70">
    <rdf:RDF>
      <cc:Work
         rdf:about="">
        <dc:format>image/svg+xml</dc:format>
        <dc:type
           rdf:resource="http://purl.org/dc/dcmitype/StillImage" />
      </cc:Work>
    </rdf:RDF>
  </metadata>
  <defs
     id="defs68" />
  <sodipodi:namedview
     pagecolor="#ffffff"
     bordercolor="#666666"
     borderopacity="1"
     objecttolerance="10"
     gridtolerance="10"
     guidetolerance="10"
     inkscape:pageopacity="0"
     inkscape:pageshadow="2"
     inkscape:window-width="1920"
     inkscape:window-height="1017"
     id="namedview66"
     showgrid="false"
     inkscape:zoom="1.5733502"
     inkscape:cx="73.961272"
     inkscape:cy="257.1694"
     inkscape:window-x="1912"
     inkscape:window-y="-8"
     inkscape:window-maximized="1"
     inkscape:current-layer="g80" />
  <polygon
     points="121.801,5.001 122.155,5.014 122.505,5.056 122.852,5.125 123.192,5.221 123.524,5.343 123.844,5.491 124.153,5.664 124.447,5.860 124.724,6.079 124.983,6.319 125.223,6.578 125.442,6.855 125.638,7.149 125.811,7.458 125.959,7.778 126.081,8.110 126.177,8.450 126.246,8.797 126.288,9.147 126.302,9.501 126.301,102.751 126.288,103.105 126.246,103.455 126.177,103.802 126.081,104.142 125.959,104.474 125.811,104.794 125.638,105.103 125.442,105.397 125.223,105.674 124.983,105.933 124.724,106.173 124.447,106.392 124.153,106.588 123.844,106.761 123.524,106.909 123.192,107.031 122.852,107.127 122.505,107.196 122.155,107.238 121.801,107.252 9.501,107.251 9.147,107.238 8.797,107.196 8.450,107.127 8.110,107.031 7.778,106.909 7.458,106.761 7.149,106.588 6.855,106.392 6.578,106.173 6.319,105.933 6.079,105.674 5.860,105.397 5.664,105.103 5.491,104.794 5.343,104.474 5.221,104.142 5.125,103.802 5.056,103.455 5.014,103.105 5.000,102.751 5.001,9.501 5.014,9.147 5.056,8.797 5.125,8.450 5.221,8.110 5.343,7.778 5.491,7.458 5.664,7.149 5.860,6.855 6.079,6.578 6.319,6.319 6.578,6.079 6.855,5.860 7.149,5.664 7.458,5.491 7.778,5.343 8.110,5.221 8.450,5.125 8.797,5.056 9.147,5.014 9.501,5.000"
     style="fill:none;stroke-width:0.050000mm;stroke:black"
     id="polygon2" />
  <polygon
     points="11.025,87.226 11.025,101.226 25.026,101.226 25.026,87.226"
     style="fill:none;stroke-width:0.050000mm;stroke:black"
     id="polygon4" />
  <polygon
     points="30.076,87.226 30.076,101.226 44.076,101.226 44.076,87.226"
     style="fill:none;stroke-width:0.050000mm;stroke:black"
     id="polygon6" />
  <polygon
     points="49.126,87.226 49.126,101.226 63.126,101.226 63.126,87.226"
     style="fill:none;stroke-width:0.050000mm;stroke:black"
     id="polygon8" />
  <polygon
     points="68.176,87.226 68.176,101.226 82.176,101.226 82.176,87.226"
     style="fill:none;stroke-width:0.050000mm;stroke:black"
     id="polygon10" />
  <polygon
     points="87.226,87.226 87.226,101.226 101.226,101.226 101.226,87.226"
     style="fill:none;stroke-width:0.050000mm;stroke:black"
     id="polygon12" />
  <polygon
     points="106.275,87.226 106.275,101.226 120.275,101.226 120.275,87.226"
     style="fill:none;stroke-width:0.050000mm;stroke:black"
     id="polygon14" />
  <polygon
     points="11.025,68.176 11.025,82.176 25.026,82.176 25.026,68.176"
     style="fill:none;stroke-width:0.050000mm;stroke:black"
     id="polygon16" />
  <polygon
     points="30.076,68.176 30.076,82.176 44.076,82.176 44.076,68.176"
     style="fill:none;stroke-width:0.050000mm;stroke:black"
     id="polygon18" />
  <polygon
     points="49.126,68.176 49.126,82.176 63.126,82.176 63.126,68.176"
     style="fill:none;stroke-width:0.050000mm;stroke:black"
     id="polygon20" />
  <polygon
     points="68.176,68.176 68.176,82.176 82.176,82.176 82.176,68.176"
     style="fill:none;stroke-width:0.050000mm;stroke:black"
     id="polygon22" />
  <polygon
     points="87.226,68.176 87.226,82.176 101.226,82.176 101.226,68.176"
     style="fill:none;stroke-width:0.050000mm;stroke:black"
     id="polygon24" />
  <polygon
     points="106.275,68.176 106.275,82.176 120.275,82.176 120.275,68.176"
     style="fill:none;stroke-width:0.050000mm;stroke:black"
     id="polygon26" />
  <polygon
     points="11.025,49.126 11.025,63.126 25.026,63.126 25.026,49.126"
     style="fill:none;stroke-width:0.050000mm;stroke:black"
     id="polygon28" />
  <polygon
     points="30.076,49.126 30.076,63.126 44.076,63.126 44.076,49.126"
     style="fill:none;stroke-width:0.050000mm;stroke:black"
     id="polygon30" />
  <polygon
     points="49.126,49.126 49.126,63.126 63.126,63.126 63.126,49.126"
     style="fill:none;stroke-width:0.050000mm;stroke:black"
     id="polygon32" />
  <polygon
     points="68.176,49.126 68.176,63.126 82.176,63.126 82.176,49.126"
     style="fill:none;stroke-width:0.050000mm;stroke:black"
     id="polygon34" />
  <polygon
     points="87.226,49.126 87.226,63.126 101.226,63.126 101.226,49.126"
     style="fill:none;stroke-width:0.050000mm;stroke:black"
     id="polygon36" />
  <polygon
     points="106.275,49.126 106.275,63.126 120.275,63.126 120.275,49.126"
     style="fill:none;stroke-width:0.050000mm;stroke:black"
     id="polygon38" />
  <polygon
     points="11.025,30.076 11.025,44.076 25.026,44.076 25.026,30.076"
     style="fill:none;stroke-width:0.050000mm;stroke:black"
     id="polygon40" />
  <polygon
     points="30.076,30.076 30.076,44.076 44.076,44.076 44.076,30.076"
     style="fill:none;stroke-width:0.050000mm;stroke:black"
     id="polygon42" />
  <polygon
     points="49.126,30.076 49.126,44.076 63.126,44.076 63.126,30.076"
     style="fill:none;stroke-width:0.050000mm;stroke:black"
     id="polygon44" />
  <polygon
     points="68.176,30.076 68.176,44.076 82.176,44.076 82.176,30.076"
     style="fill:none;stroke-width:0.050000mm;stroke:black"
     id="polygon46" />
  <polygon
     points="87.226,30.076 87.226,44.076 101.226,44.076 101.226,30.076"
     style="fill:none;stroke-width:0.050000mm;stroke:black"
     id="polygon48" />
  <polygon
     points="106.275,30.076 106.275,44.076 120.275,44.076 120.275,30.076"
     style="fill:none;stroke-width:0.050000mm;stroke:black"
     id="polygon50" />
  <polygon
     points="11.025,11.025 11.025,25.026 25.026,25.026 25.026,11.025"
     style="fill:none;stroke-width:0.050000mm;stroke:black"
     id="polygon52" />
  <polygon
     points="30.076,11.025 30.076,25.026 44.076,25.026 44.076,11.025"
     style="fill:none;stroke-width:0.050000mm;stroke:black"
     id="polygon54" />
  <polygon
     points="49.126,11.025 49.126,25.026 63.126,25.026 63.126,11.025"
     style="fill:none;stroke-width:0.050000mm;stroke:black"
     id="polygon56" />
  <polygon
     points="68.176,11.025 68.176,25.026 82.176,25.026 82.176,11.025"
     style="fill:none;stroke-width:0.050000mm;stroke:black"
     id="polygon58" />
  <polygon
     points="87.226,11.025 87.226,25.026 101.226,25.026 101.226,11.025"
     style="fill:none;stroke-width:0.050000mm;stroke:black"
     id="polygon60" />
  <polygon
     points="106.275,11.025 106.275,25.026 120.275,25.026 120.275,11.025"
     style="fill:none;stroke-width:0.050000mm;stroke:black"
     id="polygon62" />
  <g
     id="g80"
     transform="translate(120.60978,-3.986123)">
    <polygon
       transform="translate(-200.63398,24.003672)"
       id="polygon48-7-4"
       style="fill:none;stroke:#000000;stroke-width:0.05mm"
       points="107.75,8.55 108.075,8.498 108.368,8.349 108.6,8.117 108.749,7.824 108.801,7.5 108.749,7.175 108.6,6.882 108.368,6.65 108.075,6.501 107.75,6.45 107.426,6.501 107.133,6.65 106.901,6.882 106.752,7.175 106.7,7.5 106.752,7.824 106.901,8.117 107.133,8.349 107.426,8.498 " />
    <polygon
       transform="translate(-200.70214,81.962471)"
       id="polygon48-7-2"
       style="fill:none;stroke:#000000;stroke-width:0.05mm"
       points="108.368,8.349 108.6,8.117 108.749,7.824 108.801,7.5 108.749,7.175 108.6,6.882 108.368,6.65 108.075,6.501 107.75,6.45 107.426,6.501 107.133,6.65 106.901,6.882 106.752,7.175 106.7,7.5 106.752,7.824 106.901,8.117 107.133,8.349 107.426,8.498 107.75,8.55 108.075,8.498 " />
    <polygon
       transform="translate(-124.77029,81.327112)"
       id="polygon48-7-6"
       style="fill:none;stroke:#000000;stroke-width:0.05mm"
       points="107.426,8.498 107.75,8.55 108.075,8.498 108.368,8.349 108.6,8.117 108.749,7.824 108.801,7.5 108.749,7.175 108.6,6.882 108.368,6.65 108.075,6.501 107.75,6.45 107.426,6.501 107.133,6.65 106.901,6.882 106.752,7.175 106.7,7.5 106.752,7.824 106.901,8.117 107.133,8.349 " />
    <polygon
       transform="translate(-124.60212,23.814486)"
       id="polygon48-7-22"
       style="fill:none;stroke:#000000;stroke-width:0.05mm"
       points="107.426,8.498 107.75,8.55 108.075,8.498 108.368,8.349 108.6,8.117 108.749,7.824 108.801,7.5 108.749,7.175 108.6,6.882 108.368,6.65 108.075,6.501 107.75,6.45 107.426,6.501 107.133,6.65 106.901,6.882 106.752,7.175 106.7,7.5 106.752,7.824 106.901,8.117 107.133,8.349 " />
    <polygon
       transform="translate(-181.70484,62.292872)"
       id="polygon48-7-8"
       style="fill:none;stroke:#000000;stroke-width:0.05mm"
       points="107.75,8.55 108.075,8.498 108.368,8.349 108.6,8.117 108.749,7.824 108.801,7.5 108.749,7.175 108.6,6.882 108.368,6.65 108.075,6.501 107.75,6.45 107.426,6.501 107.133,6.65 106.901,6.882 106.752,7.175 106.7,7.5 106.752,7.824 106.901,8.117 107.133,8.349 107.426,8.498 " />
    <polygon
       transform="translate(-143.66789,62.324402)"
       id="polygon48-7-7"
       style="fill:none;stroke:#000000;stroke-width:0.05mm"
       points="107.75,8.55 108.075,8.498 108.368,8.349 108.6,8.117 108.749,7.824 108.801,7.5 108.749,7.175 108.6,6.882 108.368,6.65 108.075,6.501 107.75,6.45 107.426,6.501 107.133,6.65 106.901,6.882 106.752,7.175 106.7,7.5 106.752,7.824 106.901,8.117 107.133,8.349 107.426,8.498 " />
    <polygon
       transform="translate(-162.55741,81.872412)"
       id="polygon48-7-82"
       style="fill:none;stroke:#000000;stroke-width:0.05mm"
       points="108.6,8.117 108.749,7.824 108.801,7.5 108.749,7.175 108.6,6.882 108.368,6.65 108.075,6.501 107.75,6.45 107.426,6.501 107.133,6.65 106.901,6.882 106.752,7.175 106.7,7.5 106.752,7.824 106.901,8.117 107.133,8.349 107.426,8.498 107.75,8.55 108.075,8.498 108.368,8.349 " />
  </g>
</svg>
