G04 #@! TF.GenerationSoftware,KiCad,Pcbnew,(5.0.0)*
G04 #@! TF.CreationDate,2018-09-21T23:36:36+03:00*
G04 #@! TF.ProjectId,PROJECT,50524F4A4543542E6B696361645F7063,rev?*
G04 #@! TF.SameCoordinates,Original*
G04 #@! TF.FileFunction,Legend,Top*
G04 #@! TF.FilePolarity,Positive*
%FSLAX46Y46*%
G04 Gerber Fmt 4.6, Leading zero omitted, Abs format (unit mm)*
G04 Created by KiCad (PCBNEW (5.0.0)) date 09/21/18 23:36:36*
%MOMM*%
%LPD*%
G01*
G04 APERTURE LIST*
%ADD10C,0.010000*%
G04 APERTURE END LIST*
D10*
G04 #@! TO.C,G\002A\002A\002A*
G36*
X95062475Y-79760533D02*
X95259356Y-79904246D01*
X95521326Y-80120373D01*
X95826583Y-80389773D01*
X96153323Y-80693305D01*
X96479745Y-81011827D01*
X96730767Y-81269600D01*
X97001806Y-81564263D01*
X97290036Y-81892169D01*
X97575462Y-82228848D01*
X97838090Y-82549829D01*
X98057926Y-82830643D01*
X98214975Y-83046819D01*
X98289242Y-83173888D01*
X98290853Y-83178915D01*
X98259382Y-83253256D01*
X98133051Y-83388851D01*
X97903437Y-83593370D01*
X97562118Y-83874482D01*
X97283315Y-84096433D01*
X97011675Y-84310704D01*
X96625076Y-83811876D01*
X96357755Y-83487285D01*
X96007139Y-83090835D01*
X95604242Y-82654977D01*
X95180079Y-82212164D01*
X94765668Y-81794847D01*
X94392022Y-81435477D01*
X94124060Y-81195057D01*
X93903479Y-81001240D01*
X93737605Y-80843760D01*
X93654684Y-80749823D01*
X93650179Y-80738661D01*
X93707242Y-80666850D01*
X93857505Y-80529369D01*
X94069581Y-80351050D01*
X94312086Y-80156723D01*
X94553630Y-79971219D01*
X94762829Y-79819368D01*
X94908295Y-79726002D01*
X94952484Y-79708375D01*
X95062475Y-79760533D01*
X95062475Y-79760533D01*
G37*
X95062475Y-79760533D02*
X95259356Y-79904246D01*
X95521326Y-80120373D01*
X95826583Y-80389773D01*
X96153323Y-80693305D01*
X96479745Y-81011827D01*
X96730767Y-81269600D01*
X97001806Y-81564263D01*
X97290036Y-81892169D01*
X97575462Y-82228848D01*
X97838090Y-82549829D01*
X98057926Y-82830643D01*
X98214975Y-83046819D01*
X98289242Y-83173888D01*
X98290853Y-83178915D01*
X98259382Y-83253256D01*
X98133051Y-83388851D01*
X97903437Y-83593370D01*
X97562118Y-83874482D01*
X97283315Y-84096433D01*
X97011675Y-84310704D01*
X96625076Y-83811876D01*
X96357755Y-83487285D01*
X96007139Y-83090835D01*
X95604242Y-82654977D01*
X95180079Y-82212164D01*
X94765668Y-81794847D01*
X94392022Y-81435477D01*
X94124060Y-81195057D01*
X93903479Y-81001240D01*
X93737605Y-80843760D01*
X93654684Y-80749823D01*
X93650179Y-80738661D01*
X93707242Y-80666850D01*
X93857505Y-80529369D01*
X94069581Y-80351050D01*
X94312086Y-80156723D01*
X94553630Y-79971219D01*
X94762829Y-79819368D01*
X94908295Y-79726002D01*
X94952484Y-79708375D01*
X95062475Y-79760533D01*
G36*
X92798045Y-81978357D02*
X93141362Y-82292026D01*
X93513220Y-82651897D01*
X93899345Y-83042031D01*
X94285463Y-83446487D01*
X94657299Y-83849326D01*
X95000581Y-84234608D01*
X95301034Y-84586393D01*
X95544385Y-84888742D01*
X95716359Y-85125714D01*
X95802683Y-85281370D01*
X95803413Y-85334492D01*
X95684330Y-85436041D01*
X95483562Y-85601379D01*
X95240430Y-85798613D01*
X94994251Y-85995852D01*
X94784345Y-86161203D01*
X94780888Y-86163887D01*
X94508911Y-86374992D01*
X94250952Y-86038090D01*
X93820987Y-85504734D01*
X93317863Y-84926091D01*
X92783849Y-84348172D01*
X92261212Y-83816991D01*
X91878974Y-83455963D01*
X91595192Y-83194207D01*
X91358099Y-82965477D01*
X91189148Y-82791230D01*
X91109792Y-82692921D01*
X91106471Y-82683346D01*
X91161628Y-82605760D01*
X91313566Y-82457329D01*
X91537077Y-82261507D01*
X91732845Y-82100587D01*
X92362926Y-81595613D01*
X92798045Y-81978357D01*
X92798045Y-81978357D01*
G37*
X92798045Y-81978357D02*
X93141362Y-82292026D01*
X93513220Y-82651897D01*
X93899345Y-83042031D01*
X94285463Y-83446487D01*
X94657299Y-83849326D01*
X95000581Y-84234608D01*
X95301034Y-84586393D01*
X95544385Y-84888742D01*
X95716359Y-85125714D01*
X95802683Y-85281370D01*
X95803413Y-85334492D01*
X95684330Y-85436041D01*
X95483562Y-85601379D01*
X95240430Y-85798613D01*
X94994251Y-85995852D01*
X94784345Y-86161203D01*
X94780888Y-86163887D01*
X94508911Y-86374992D01*
X94250952Y-86038090D01*
X93820987Y-85504734D01*
X93317863Y-84926091D01*
X92783849Y-84348172D01*
X92261212Y-83816991D01*
X91878974Y-83455963D01*
X91595192Y-83194207D01*
X91358099Y-82965477D01*
X91189148Y-82791230D01*
X91109792Y-82692921D01*
X91106471Y-82683346D01*
X91161628Y-82605760D01*
X91313566Y-82457329D01*
X91537077Y-82261507D01*
X91732845Y-82100587D01*
X92362926Y-81595613D01*
X92798045Y-81978357D01*
G36*
X151349881Y-93440250D02*
X128224507Y-93440250D01*
X128224507Y-91059000D01*
X151349881Y-91059000D01*
X151349881Y-93440250D01*
X151349881Y-93440250D01*
G37*
X151349881Y-93440250D02*
X128224507Y-93440250D01*
X128224507Y-91059000D01*
X151349881Y-91059000D01*
X151349881Y-93440250D01*
G36*
X63519378Y-81556725D02*
X63713412Y-81612538D01*
X63995733Y-81703382D01*
X64339241Y-81819608D01*
X64716837Y-81951565D01*
X65101422Y-82089606D01*
X65465897Y-82224080D01*
X65783163Y-82345339D01*
X66026119Y-82443732D01*
X66167668Y-82509611D01*
X66189475Y-82524350D01*
X66247568Y-82621565D01*
X66186247Y-82730310D01*
X66166777Y-82751221D01*
X66017233Y-82885471D01*
X65932413Y-82945180D01*
X65872593Y-83042566D01*
X65784684Y-83266636D01*
X65678026Y-83590234D01*
X65561963Y-83986207D01*
X65515364Y-84157400D01*
X65059577Y-85794709D01*
X64603504Y-87284483D01*
X64143449Y-88637899D01*
X63675713Y-89866130D01*
X63434934Y-90443476D01*
X63033710Y-91375764D01*
X63992840Y-92064666D01*
X64381723Y-92347188D01*
X64800230Y-92656740D01*
X65229575Y-92978844D01*
X65650973Y-93299023D01*
X66045638Y-93602800D01*
X66394785Y-93875698D01*
X66679628Y-94103240D01*
X66881383Y-94270949D01*
X66981263Y-94364348D01*
X66986937Y-94372088D01*
X66963533Y-94456292D01*
X66879353Y-94650530D01*
X66748657Y-94926882D01*
X66585704Y-95257428D01*
X66404753Y-95614250D01*
X66220062Y-95969426D01*
X66045890Y-96295037D01*
X65896496Y-96563164D01*
X65786140Y-96745886D01*
X65746736Y-96800466D01*
X65672297Y-96774897D01*
X65501195Y-96662847D01*
X65253535Y-96479124D01*
X64949420Y-96238536D01*
X64669065Y-96006716D01*
X64299717Y-95700076D01*
X63897670Y-95373890D01*
X63482674Y-95043389D01*
X63074483Y-94723803D01*
X62692849Y-94430364D01*
X62357522Y-94178302D01*
X62088255Y-93982848D01*
X61904799Y-93859233D01*
X61837823Y-93823540D01*
X61765351Y-93873567D01*
X61617622Y-94028650D01*
X61412332Y-94268413D01*
X61167173Y-94572480D01*
X60998891Y-94789625D01*
X59656196Y-96448054D01*
X58259481Y-97973107D01*
X56787458Y-99386417D01*
X55218839Y-100709614D01*
X55016975Y-100868145D01*
X54627222Y-101166148D01*
X54222605Y-101465539D01*
X53824137Y-101751817D01*
X53452832Y-102010477D01*
X53129702Y-102227018D01*
X52875762Y-102386937D01*
X52712025Y-102475730D01*
X52668488Y-102489000D01*
X52588845Y-102438124D01*
X52416907Y-102296808D01*
X52172044Y-102082014D01*
X51873628Y-101810706D01*
X51566896Y-101524314D01*
X51239845Y-101213721D01*
X50954104Y-100939408D01*
X50727889Y-100719104D01*
X50579415Y-100570538D01*
X50527066Y-100512282D01*
X50581200Y-100456929D01*
X50742472Y-100342967D01*
X50984905Y-100187829D01*
X51238585Y-100034724D01*
X52773995Y-99069989D01*
X54214245Y-98042507D01*
X55549173Y-96961358D01*
X56768622Y-95835619D01*
X57862431Y-94674368D01*
X58820442Y-93486683D01*
X59254707Y-92871863D01*
X59610252Y-92343165D01*
X58527977Y-91683075D01*
X58232008Y-91507076D01*
X57856710Y-91290778D01*
X57424262Y-91046289D01*
X56956842Y-90785717D01*
X56476629Y-90521170D01*
X56005801Y-90264754D01*
X55566535Y-90028579D01*
X55181011Y-89824752D01*
X54871406Y-89665380D01*
X54659899Y-89562571D01*
X54590472Y-89533477D01*
X54605017Y-89461833D01*
X54679546Y-89279611D01*
X54800110Y-89014839D01*
X54952762Y-88695543D01*
X55123555Y-88349752D01*
X55298540Y-88005491D01*
X55463771Y-87690789D01*
X55605299Y-87433672D01*
X55709177Y-87262169D01*
X55743699Y-87216108D01*
X55830029Y-87227929D01*
X56032949Y-87306667D01*
X56335665Y-87443722D01*
X56721383Y-87630494D01*
X57173308Y-87858382D01*
X57674646Y-88118786D01*
X58208602Y-88403105D01*
X58758382Y-88702740D01*
X59307192Y-89009089D01*
X59829111Y-89308242D01*
X60194739Y-89518862D01*
X60511222Y-89697245D01*
X60756233Y-89831124D01*
X60907444Y-89908231D01*
X60945686Y-89921724D01*
X60999579Y-89823213D01*
X61096081Y-89607733D01*
X61222612Y-89306184D01*
X61366596Y-88949462D01*
X61515455Y-88568466D01*
X61656611Y-88194091D01*
X61721597Y-88015627D01*
X62006722Y-87169045D01*
X62300042Y-86201940D01*
X62591558Y-85151392D01*
X62871273Y-84054483D01*
X63129189Y-82948292D01*
X63287228Y-82208687D01*
X63350071Y-81912068D01*
X63402570Y-81681956D01*
X63435796Y-81556919D01*
X63440729Y-81545592D01*
X63519378Y-81556725D01*
X63519378Y-81556725D01*
G37*
X63519378Y-81556725D02*
X63713412Y-81612538D01*
X63995733Y-81703382D01*
X64339241Y-81819608D01*
X64716837Y-81951565D01*
X65101422Y-82089606D01*
X65465897Y-82224080D01*
X65783163Y-82345339D01*
X66026119Y-82443732D01*
X66167668Y-82509611D01*
X66189475Y-82524350D01*
X66247568Y-82621565D01*
X66186247Y-82730310D01*
X66166777Y-82751221D01*
X66017233Y-82885471D01*
X65932413Y-82945180D01*
X65872593Y-83042566D01*
X65784684Y-83266636D01*
X65678026Y-83590234D01*
X65561963Y-83986207D01*
X65515364Y-84157400D01*
X65059577Y-85794709D01*
X64603504Y-87284483D01*
X64143449Y-88637899D01*
X63675713Y-89866130D01*
X63434934Y-90443476D01*
X63033710Y-91375764D01*
X63992840Y-92064666D01*
X64381723Y-92347188D01*
X64800230Y-92656740D01*
X65229575Y-92978844D01*
X65650973Y-93299023D01*
X66045638Y-93602800D01*
X66394785Y-93875698D01*
X66679628Y-94103240D01*
X66881383Y-94270949D01*
X66981263Y-94364348D01*
X66986937Y-94372088D01*
X66963533Y-94456292D01*
X66879353Y-94650530D01*
X66748657Y-94926882D01*
X66585704Y-95257428D01*
X66404753Y-95614250D01*
X66220062Y-95969426D01*
X66045890Y-96295037D01*
X65896496Y-96563164D01*
X65786140Y-96745886D01*
X65746736Y-96800466D01*
X65672297Y-96774897D01*
X65501195Y-96662847D01*
X65253535Y-96479124D01*
X64949420Y-96238536D01*
X64669065Y-96006716D01*
X64299717Y-95700076D01*
X63897670Y-95373890D01*
X63482674Y-95043389D01*
X63074483Y-94723803D01*
X62692849Y-94430364D01*
X62357522Y-94178302D01*
X62088255Y-93982848D01*
X61904799Y-93859233D01*
X61837823Y-93823540D01*
X61765351Y-93873567D01*
X61617622Y-94028650D01*
X61412332Y-94268413D01*
X61167173Y-94572480D01*
X60998891Y-94789625D01*
X59656196Y-96448054D01*
X58259481Y-97973107D01*
X56787458Y-99386417D01*
X55218839Y-100709614D01*
X55016975Y-100868145D01*
X54627222Y-101166148D01*
X54222605Y-101465539D01*
X53824137Y-101751817D01*
X53452832Y-102010477D01*
X53129702Y-102227018D01*
X52875762Y-102386937D01*
X52712025Y-102475730D01*
X52668488Y-102489000D01*
X52588845Y-102438124D01*
X52416907Y-102296808D01*
X52172044Y-102082014D01*
X51873628Y-101810706D01*
X51566896Y-101524314D01*
X51239845Y-101213721D01*
X50954104Y-100939408D01*
X50727889Y-100719104D01*
X50579415Y-100570538D01*
X50527066Y-100512282D01*
X50581200Y-100456929D01*
X50742472Y-100342967D01*
X50984905Y-100187829D01*
X51238585Y-100034724D01*
X52773995Y-99069989D01*
X54214245Y-98042507D01*
X55549173Y-96961358D01*
X56768622Y-95835619D01*
X57862431Y-94674368D01*
X58820442Y-93486683D01*
X59254707Y-92871863D01*
X59610252Y-92343165D01*
X58527977Y-91683075D01*
X58232008Y-91507076D01*
X57856710Y-91290778D01*
X57424262Y-91046289D01*
X56956842Y-90785717D01*
X56476629Y-90521170D01*
X56005801Y-90264754D01*
X55566535Y-90028579D01*
X55181011Y-89824752D01*
X54871406Y-89665380D01*
X54659899Y-89562571D01*
X54590472Y-89533477D01*
X54605017Y-89461833D01*
X54679546Y-89279611D01*
X54800110Y-89014839D01*
X54952762Y-88695543D01*
X55123555Y-88349752D01*
X55298540Y-88005491D01*
X55463771Y-87690789D01*
X55605299Y-87433672D01*
X55709177Y-87262169D01*
X55743699Y-87216108D01*
X55830029Y-87227929D01*
X56032949Y-87306667D01*
X56335665Y-87443722D01*
X56721383Y-87630494D01*
X57173308Y-87858382D01*
X57674646Y-88118786D01*
X58208602Y-88403105D01*
X58758382Y-88702740D01*
X59307192Y-89009089D01*
X59829111Y-89308242D01*
X60194739Y-89518862D01*
X60511222Y-89697245D01*
X60756233Y-89831124D01*
X60907444Y-89908231D01*
X60945686Y-89921724D01*
X60999579Y-89823213D01*
X61096081Y-89607733D01*
X61222612Y-89306184D01*
X61366596Y-88949462D01*
X61515455Y-88568466D01*
X61656611Y-88194091D01*
X61721597Y-88015627D01*
X62006722Y-87169045D01*
X62300042Y-86201940D01*
X62591558Y-85151392D01*
X62871273Y-84054483D01*
X63129189Y-82948292D01*
X63287228Y-82208687D01*
X63350071Y-81912068D01*
X63402570Y-81681956D01*
X63435796Y-81556919D01*
X63440729Y-81545592D01*
X63519378Y-81556725D01*
G36*
X85092885Y-81621524D02*
X85535368Y-81648942D01*
X85845674Y-81700079D01*
X86033206Y-81779387D01*
X86107366Y-81891317D01*
X86077556Y-82040322D01*
X85953178Y-82230854D01*
X85914087Y-82278749D01*
X85688985Y-82547144D01*
X85688985Y-89306027D01*
X86238686Y-89471080D01*
X86743611Y-89630585D01*
X87358067Y-89837375D01*
X88050721Y-90079949D01*
X88790243Y-90346807D01*
X89545302Y-90626448D01*
X90284567Y-90907370D01*
X90976705Y-91178073D01*
X91590387Y-91427056D01*
X91754657Y-91495858D01*
X92360826Y-91755386D01*
X92967948Y-92021557D01*
X93559863Y-92286731D01*
X94120412Y-92543268D01*
X94633437Y-92783528D01*
X95082779Y-92999871D01*
X95452280Y-93184657D01*
X95725780Y-93330247D01*
X95887122Y-93428999D01*
X95924806Y-93467538D01*
X95892066Y-93550112D01*
X95803159Y-93744696D01*
X95672057Y-94022551D01*
X95512731Y-94354936D01*
X95339153Y-94713113D01*
X95165293Y-95068343D01*
X95005123Y-95391885D01*
X94872614Y-95655001D01*
X94781737Y-95828951D01*
X94752019Y-95880008D01*
X94683011Y-95852345D01*
X94495155Y-95764775D01*
X94206363Y-95625978D01*
X93834543Y-95444632D01*
X93397608Y-95229417D01*
X92917916Y-94991230D01*
X91831854Y-94457872D01*
X90848830Y-93992943D01*
X89941161Y-93584410D01*
X89081164Y-93220241D01*
X88241155Y-92888404D01*
X87393452Y-92576866D01*
X87232362Y-92520072D01*
X86789640Y-92365720D01*
X86396812Y-92230212D01*
X86076192Y-92121129D01*
X85850093Y-92046047D01*
X85740828Y-92012544D01*
X85734899Y-92011500D01*
X85727322Y-92088772D01*
X85720135Y-92312183D01*
X85713441Y-92669121D01*
X85707342Y-93146973D01*
X85701942Y-93733128D01*
X85697343Y-94414975D01*
X85693648Y-95179901D01*
X85690959Y-96015296D01*
X85689380Y-96908547D01*
X85688985Y-97647125D01*
X85688985Y-103282750D01*
X83338537Y-103282750D01*
X83338537Y-81613375D01*
X84508825Y-81613375D01*
X85092885Y-81621524D01*
X85092885Y-81621524D01*
G37*
X85092885Y-81621524D02*
X85535368Y-81648942D01*
X85845674Y-81700079D01*
X86033206Y-81779387D01*
X86107366Y-81891317D01*
X86077556Y-82040322D01*
X85953178Y-82230854D01*
X85914087Y-82278749D01*
X85688985Y-82547144D01*
X85688985Y-89306027D01*
X86238686Y-89471080D01*
X86743611Y-89630585D01*
X87358067Y-89837375D01*
X88050721Y-90079949D01*
X88790243Y-90346807D01*
X89545302Y-90626448D01*
X90284567Y-90907370D01*
X90976705Y-91178073D01*
X91590387Y-91427056D01*
X91754657Y-91495858D01*
X92360826Y-91755386D01*
X92967948Y-92021557D01*
X93559863Y-92286731D01*
X94120412Y-92543268D01*
X94633437Y-92783528D01*
X95082779Y-92999871D01*
X95452280Y-93184657D01*
X95725780Y-93330247D01*
X95887122Y-93428999D01*
X95924806Y-93467538D01*
X95892066Y-93550112D01*
X95803159Y-93744696D01*
X95672057Y-94022551D01*
X95512731Y-94354936D01*
X95339153Y-94713113D01*
X95165293Y-95068343D01*
X95005123Y-95391885D01*
X94872614Y-95655001D01*
X94781737Y-95828951D01*
X94752019Y-95880008D01*
X94683011Y-95852345D01*
X94495155Y-95764775D01*
X94206363Y-95625978D01*
X93834543Y-95444632D01*
X93397608Y-95229417D01*
X92917916Y-94991230D01*
X91831854Y-94457872D01*
X90848830Y-93992943D01*
X89941161Y-93584410D01*
X89081164Y-93220241D01*
X88241155Y-92888404D01*
X87393452Y-92576866D01*
X87232362Y-92520072D01*
X86789640Y-92365720D01*
X86396812Y-92230212D01*
X86076192Y-92121129D01*
X85850093Y-92046047D01*
X85740828Y-92012544D01*
X85734899Y-92011500D01*
X85727322Y-92088772D01*
X85720135Y-92312183D01*
X85713441Y-92669121D01*
X85707342Y-93146973D01*
X85701942Y-93733128D01*
X85697343Y-94414975D01*
X85693648Y-95179901D01*
X85690959Y-96015296D01*
X85689380Y-96908547D01*
X85688985Y-97647125D01*
X85688985Y-103282750D01*
X83338537Y-103282750D01*
X83338537Y-81613375D01*
X84508825Y-81613375D01*
X85092885Y-81621524D01*
G36*
X171184335Y-81300793D02*
X171579656Y-81314550D01*
X171887501Y-81335648D01*
X172082302Y-81362589D01*
X172129790Y-81378042D01*
X172253859Y-81523916D01*
X172253763Y-81740622D01*
X172131378Y-82010727D01*
X172048985Y-82129312D01*
X171821522Y-82428953D01*
X171821522Y-87884000D01*
X177963015Y-87884000D01*
X177963015Y-90265250D01*
X171973164Y-90265250D01*
X171973101Y-91515406D01*
X171949734Y-92714858D01*
X171876689Y-93788836D01*
X171749354Y-94763442D01*
X171563117Y-95664779D01*
X171313366Y-96518951D01*
X170995489Y-97352059D01*
X170905356Y-97558935D01*
X170335308Y-98653906D01*
X169632107Y-99680001D01*
X168793956Y-100639316D01*
X167819057Y-101533945D01*
X166882039Y-102244729D01*
X166519052Y-102486371D01*
X166097939Y-102748177D01*
X165646398Y-103014809D01*
X165192125Y-103270926D01*
X164762818Y-103501192D01*
X164386174Y-103690268D01*
X164089890Y-103822815D01*
X163936149Y-103876140D01*
X163852963Y-103882983D01*
X163761019Y-103848996D01*
X163642121Y-103757914D01*
X163478074Y-103593473D01*
X163250683Y-103339408D01*
X162969433Y-103011985D01*
X162701254Y-102693054D01*
X162473118Y-102414297D01*
X162302456Y-102197606D01*
X162206698Y-102064876D01*
X162192269Y-102035798D01*
X162258463Y-101980910D01*
X162432817Y-101895488D01*
X162678984Y-101797129D01*
X162704060Y-101788012D01*
X163128030Y-101616382D01*
X163635020Y-101382015D01*
X164180518Y-101108065D01*
X164720013Y-100817686D01*
X165208996Y-100534033D01*
X165602954Y-100280259D01*
X165604209Y-100279384D01*
X166567110Y-99522619D01*
X167398994Y-98687149D01*
X168099279Y-97773797D01*
X168667383Y-96783386D01*
X169102721Y-95716741D01*
X169293150Y-95067437D01*
X169356370Y-94809107D01*
X169405511Y-94575057D01*
X169442806Y-94338738D01*
X169470487Y-94073605D01*
X169490788Y-93753108D01*
X169505941Y-93350702D01*
X169518179Y-92839838D01*
X169528477Y-92269468D01*
X169562031Y-90265250D01*
X162733436Y-90265250D01*
X162778058Y-93043375D01*
X162822679Y-95821500D01*
X160524209Y-95821500D01*
X160523956Y-94293531D01*
X160520903Y-93698892D01*
X160512633Y-93048125D01*
X160500214Y-92400732D01*
X160484712Y-91816214D01*
X160474175Y-91515406D01*
X160424647Y-90265250D01*
X154686000Y-90265250D01*
X154686000Y-87884000D01*
X160461708Y-87884000D01*
X160406296Y-85026499D01*
X160350883Y-82168999D01*
X161574859Y-82168999D01*
X162036560Y-82170496D01*
X162371182Y-82176854D01*
X162603277Y-82190880D01*
X162757395Y-82215377D01*
X162858087Y-82253150D01*
X162929903Y-82307004D01*
X162948758Y-82325949D01*
X163042588Y-82466366D01*
X163043702Y-82622162D01*
X162945625Y-82828658D01*
X162823373Y-83009929D01*
X162767209Y-83097596D01*
X162722561Y-83198395D01*
X162688789Y-83328897D01*
X162665255Y-83505672D01*
X162651317Y-83745290D01*
X162646338Y-84064322D01*
X162649678Y-84479338D01*
X162660698Y-85006907D01*
X162678758Y-85663601D01*
X162697338Y-86276656D01*
X162747084Y-87883999D01*
X166109079Y-87883999D01*
X169471075Y-87884000D01*
X169471075Y-81295875D01*
X170727104Y-81295875D01*
X171184335Y-81300793D01*
X171184335Y-81300793D01*
G37*
X171184335Y-81300793D02*
X171579656Y-81314550D01*
X171887501Y-81335648D01*
X172082302Y-81362589D01*
X172129790Y-81378042D01*
X172253859Y-81523916D01*
X172253763Y-81740622D01*
X172131378Y-82010727D01*
X172048985Y-82129312D01*
X171821522Y-82428953D01*
X171821522Y-87884000D01*
X177963015Y-87884000D01*
X177963015Y-90265250D01*
X171973164Y-90265250D01*
X171973101Y-91515406D01*
X171949734Y-92714858D01*
X171876689Y-93788836D01*
X171749354Y-94763442D01*
X171563117Y-95664779D01*
X171313366Y-96518951D01*
X170995489Y-97352059D01*
X170905356Y-97558935D01*
X170335308Y-98653906D01*
X169632107Y-99680001D01*
X168793956Y-100639316D01*
X167819057Y-101533945D01*
X166882039Y-102244729D01*
X166519052Y-102486371D01*
X166097939Y-102748177D01*
X165646398Y-103014809D01*
X165192125Y-103270926D01*
X164762818Y-103501192D01*
X164386174Y-103690268D01*
X164089890Y-103822815D01*
X163936149Y-103876140D01*
X163852963Y-103882983D01*
X163761019Y-103848996D01*
X163642121Y-103757914D01*
X163478074Y-103593473D01*
X163250683Y-103339408D01*
X162969433Y-103011985D01*
X162701254Y-102693054D01*
X162473118Y-102414297D01*
X162302456Y-102197606D01*
X162206698Y-102064876D01*
X162192269Y-102035798D01*
X162258463Y-101980910D01*
X162432817Y-101895488D01*
X162678984Y-101797129D01*
X162704060Y-101788012D01*
X163128030Y-101616382D01*
X163635020Y-101382015D01*
X164180518Y-101108065D01*
X164720013Y-100817686D01*
X165208996Y-100534033D01*
X165602954Y-100280259D01*
X165604209Y-100279384D01*
X166567110Y-99522619D01*
X167398994Y-98687149D01*
X168099279Y-97773797D01*
X168667383Y-96783386D01*
X169102721Y-95716741D01*
X169293150Y-95067437D01*
X169356370Y-94809107D01*
X169405511Y-94575057D01*
X169442806Y-94338738D01*
X169470487Y-94073605D01*
X169490788Y-93753108D01*
X169505941Y-93350702D01*
X169518179Y-92839838D01*
X169528477Y-92269468D01*
X169562031Y-90265250D01*
X162733436Y-90265250D01*
X162778058Y-93043375D01*
X162822679Y-95821500D01*
X160524209Y-95821500D01*
X160523956Y-94293531D01*
X160520903Y-93698892D01*
X160512633Y-93048125D01*
X160500214Y-92400732D01*
X160484712Y-91816214D01*
X160474175Y-91515406D01*
X160424647Y-90265250D01*
X154686000Y-90265250D01*
X154686000Y-87884000D01*
X160461708Y-87884000D01*
X160406296Y-85026499D01*
X160350883Y-82168999D01*
X161574859Y-82168999D01*
X162036560Y-82170496D01*
X162371182Y-82176854D01*
X162603277Y-82190880D01*
X162757395Y-82215377D01*
X162858087Y-82253150D01*
X162929903Y-82307004D01*
X162948758Y-82325949D01*
X163042588Y-82466366D01*
X163043702Y-82622162D01*
X162945625Y-82828658D01*
X162823373Y-83009929D01*
X162767209Y-83097596D01*
X162722561Y-83198395D01*
X162688789Y-83328897D01*
X162665255Y-83505672D01*
X162651317Y-83745290D01*
X162646338Y-84064322D01*
X162649678Y-84479338D01*
X162660698Y-85006907D01*
X162678758Y-85663601D01*
X162697338Y-86276656D01*
X162747084Y-87883999D01*
X166109079Y-87883999D01*
X169471075Y-87884000D01*
X169471075Y-81295875D01*
X170727104Y-81295875D01*
X171184335Y-81300793D01*
G36*
X113417263Y-84877349D02*
X113825830Y-84908569D01*
X114099351Y-84965042D01*
X114245634Y-85050399D01*
X114272490Y-85168274D01*
X114187727Y-85322298D01*
X114085220Y-85434887D01*
X113896978Y-85621812D01*
X113895668Y-87506968D01*
X113894358Y-89392125D01*
X117150450Y-89392124D01*
X120406542Y-89392124D01*
X120724323Y-89778338D01*
X121042103Y-90164552D01*
X121028501Y-90949120D01*
X120932454Y-92553618D01*
X120702359Y-94090458D01*
X120340133Y-95555823D01*
X119847693Y-96945897D01*
X119226957Y-98256864D01*
X118479843Y-99484909D01*
X117608268Y-100626214D01*
X116614149Y-101676964D01*
X115499405Y-102633343D01*
X114955851Y-103034071D01*
X114609217Y-103268442D01*
X114217866Y-103517869D01*
X113806210Y-103768452D01*
X113398655Y-104006292D01*
X113019612Y-104217491D01*
X112693489Y-104388150D01*
X112444695Y-104504370D01*
X112297641Y-104552251D01*
X112288769Y-104552750D01*
X112200591Y-104499217D01*
X112029435Y-104352463D01*
X111797867Y-104133249D01*
X111528456Y-103862338D01*
X111452197Y-103783068D01*
X110716979Y-103013386D01*
X111831788Y-102442800D01*
X113137123Y-101706030D01*
X114306470Y-100900525D01*
X115341615Y-100023878D01*
X116244342Y-99073680D01*
X117016437Y-98047523D01*
X117659683Y-96942999D01*
X118175866Y-95757699D01*
X118566771Y-94489216D01*
X118834182Y-93135140D01*
X118858760Y-92961615D01*
X118907053Y-92574389D01*
X118945324Y-92207750D01*
X118968466Y-91913959D01*
X118972969Y-91793218D01*
X118974358Y-91455875D01*
X113102713Y-91455875D01*
X112173020Y-91456625D01*
X111287869Y-91458797D01*
X110458876Y-91462274D01*
X109697660Y-91466939D01*
X109015838Y-91472675D01*
X108425029Y-91479364D01*
X107936850Y-91486889D01*
X107562919Y-91495134D01*
X107314853Y-91503981D01*
X107204271Y-91513312D01*
X107199554Y-91515406D01*
X107194737Y-91607344D01*
X107196983Y-91836861D01*
X107205668Y-92182989D01*
X107220168Y-92624761D01*
X107239860Y-93141209D01*
X107264122Y-93711367D01*
X107266200Y-93757750D01*
X107292319Y-94344039D01*
X107316169Y-94889845D01*
X107336759Y-95371624D01*
X107353095Y-95765834D01*
X107364186Y-96048935D01*
X107369040Y-96197384D01*
X107369061Y-96198531D01*
X107373761Y-96456500D01*
X105340210Y-96456500D01*
X105297471Y-95801656D01*
X105282618Y-95521153D01*
X105265908Y-95117418D01*
X105248573Y-94625935D01*
X105231846Y-94082190D01*
X105216959Y-93521666D01*
X105214075Y-93400562D01*
X105198979Y-92797608D01*
X105181257Y-92162881D01*
X105162350Y-91543499D01*
X105143699Y-90986578D01*
X105126746Y-90539234D01*
X105126078Y-90523218D01*
X105078739Y-89392125D01*
X111847194Y-89392125D01*
X111847194Y-84867750D01*
X112865840Y-84867749D01*
X113417263Y-84877349D01*
X113417263Y-84877349D01*
G37*
X113417263Y-84877349D02*
X113825830Y-84908569D01*
X114099351Y-84965042D01*
X114245634Y-85050399D01*
X114272490Y-85168274D01*
X114187727Y-85322298D01*
X114085220Y-85434887D01*
X113896978Y-85621812D01*
X113895668Y-87506968D01*
X113894358Y-89392125D01*
X117150450Y-89392124D01*
X120406542Y-89392124D01*
X120724323Y-89778338D01*
X121042103Y-90164552D01*
X121028501Y-90949120D01*
X120932454Y-92553618D01*
X120702359Y-94090458D01*
X120340133Y-95555823D01*
X119847693Y-96945897D01*
X119226957Y-98256864D01*
X118479843Y-99484909D01*
X117608268Y-100626214D01*
X116614149Y-101676964D01*
X115499405Y-102633343D01*
X114955851Y-103034071D01*
X114609217Y-103268442D01*
X114217866Y-103517869D01*
X113806210Y-103768452D01*
X113398655Y-104006292D01*
X113019612Y-104217491D01*
X112693489Y-104388150D01*
X112444695Y-104504370D01*
X112297641Y-104552251D01*
X112288769Y-104552750D01*
X112200591Y-104499217D01*
X112029435Y-104352463D01*
X111797867Y-104133249D01*
X111528456Y-103862338D01*
X111452197Y-103783068D01*
X110716979Y-103013386D01*
X111831788Y-102442800D01*
X113137123Y-101706030D01*
X114306470Y-100900525D01*
X115341615Y-100023878D01*
X116244342Y-99073680D01*
X117016437Y-98047523D01*
X117659683Y-96942999D01*
X118175866Y-95757699D01*
X118566771Y-94489216D01*
X118834182Y-93135140D01*
X118858760Y-92961615D01*
X118907053Y-92574389D01*
X118945324Y-92207750D01*
X118968466Y-91913959D01*
X118972969Y-91793218D01*
X118974358Y-91455875D01*
X113102713Y-91455875D01*
X112173020Y-91456625D01*
X111287869Y-91458797D01*
X110458876Y-91462274D01*
X109697660Y-91466939D01*
X109015838Y-91472675D01*
X108425029Y-91479364D01*
X107936850Y-91486889D01*
X107562919Y-91495134D01*
X107314853Y-91503981D01*
X107204271Y-91513312D01*
X107199554Y-91515406D01*
X107194737Y-91607344D01*
X107196983Y-91836861D01*
X107205668Y-92182989D01*
X107220168Y-92624761D01*
X107239860Y-93141209D01*
X107264122Y-93711367D01*
X107266200Y-93757750D01*
X107292319Y-94344039D01*
X107316169Y-94889845D01*
X107336759Y-95371624D01*
X107353095Y-95765834D01*
X107364186Y-96048935D01*
X107369040Y-96197384D01*
X107369061Y-96198531D01*
X107373761Y-96456500D01*
X105340210Y-96456500D01*
X105297471Y-95801656D01*
X105282618Y-95521153D01*
X105265908Y-95117418D01*
X105248573Y-94625935D01*
X105231846Y-94082190D01*
X105216959Y-93521666D01*
X105214075Y-93400562D01*
X105198979Y-92797608D01*
X105181257Y-92162881D01*
X105162350Y-91543499D01*
X105143699Y-90986578D01*
X105126746Y-90539234D01*
X105126078Y-90523218D01*
X105078739Y-89392125D01*
X111847194Y-89392125D01*
X111847194Y-84867750D01*
X112865840Y-84867749D01*
X113417263Y-84877349D01*
G04 #@! TD*
M02*
