G04 #@! TF.GenerationSoftware,KiCad,Pcbnew,(5.0.0)*
G04 #@! TF.CreationDate,2018-09-07T18:20:46+03:00*
G04 #@! TF.ProjectId,PROJECT,50524F4A4543542E6B696361645F7063,rev?*
G04 #@! TF.SameCoordinates,Original*
G04 #@! TF.FileFunction,Paste,Bot*
G04 #@! TF.FilePolarity,Positive*
%FSLAX46Y46*%
G04 Gerber Fmt 4.6, Leading zero omitted, Abs format (unit mm)*
G04 Created by KiCad (PCBNEW (5.0.0)) date 09/07/18 18:20:46*
%MOMM*%
%LPD*%
G01*
G04 APERTURE LIST*
%ADD10R,3.510000X2.540000*%
%ADD11R,1.200000X0.900000*%
%ADD12R,0.900000X1.200000*%
%ADD13C,1.500000*%
%ADD14R,1.500000X1.500000*%
%ADD15O,0.650000X1.550000*%
%ADD16R,0.800000X2.500000*%
%ADD17R,2.500000X0.800000*%
G04 APERTURE END LIST*
D10*
G04 #@! TO.C,BT1*
X66695320Y-90008640D03*
X66695320Y-119368640D03*
G04 #@! TD*
G04 #@! TO.C,BT2*
X104790240Y-119414360D03*
X104790240Y-90054360D03*
G04 #@! TD*
D11*
G04 #@! TO.C,D1*
X63690500Y-53085000D03*
X63690500Y-49785000D03*
G04 #@! TD*
G04 #@! TO.C,D2*
X82867500Y-49912000D03*
X82867500Y-53212000D03*
G04 #@! TD*
G04 #@! TO.C,D3*
X87376000Y-58929000D03*
X87376000Y-62229000D03*
G04 #@! TD*
G04 #@! TO.C,D4*
X123253500Y-60959000D03*
X123253500Y-57659000D03*
G04 #@! TD*
G04 #@! TO.C,D5*
X139700000Y-50674000D03*
X139700000Y-53974000D03*
G04 #@! TD*
G04 #@! TO.C,D6*
X158877000Y-53974000D03*
X158877000Y-50674000D03*
G04 #@! TD*
G04 #@! TO.C,D7*
X177927000Y-50674000D03*
X177927000Y-53974000D03*
G04 #@! TD*
G04 #@! TO.C,D8*
X60325000Y-82676000D03*
X60325000Y-79376000D03*
G04 #@! TD*
G04 #@! TO.C,D9*
X80899000Y-79249000D03*
X80899000Y-82549000D03*
G04 #@! TD*
G04 #@! TO.C,D10*
X87058500Y-82549000D03*
X87058500Y-79249000D03*
G04 #@! TD*
D12*
G04 #@! TO.C,D11*
X108647500Y-81026000D03*
X105347500Y-81026000D03*
G04 #@! TD*
D11*
G04 #@! TO.C,D12*
X140081000Y-74167000D03*
X140081000Y-70867000D03*
G04 #@! TD*
G04 #@! TO.C,D13*
X158877000Y-70740000D03*
X158877000Y-74040000D03*
G04 #@! TD*
G04 #@! TO.C,D14*
X177927000Y-73024000D03*
X177927000Y-69724000D03*
G04 #@! TD*
G04 #@! TO.C,D15*
X52070000Y-89915000D03*
X52070000Y-86615000D03*
G04 #@! TD*
G04 #@! TO.C,D16*
X83652360Y-90003360D03*
X83652360Y-93303360D03*
G04 #@! TD*
G04 #@! TO.C,D17*
X86487000Y-93328760D03*
X86487000Y-90028760D03*
G04 #@! TD*
G04 #@! TO.C,D18*
X122809000Y-94489000D03*
X122809000Y-97789000D03*
G04 #@! TD*
G04 #@! TO.C,D19*
X139573000Y-89788000D03*
X139573000Y-86488000D03*
G04 #@! TD*
G04 #@! TO.C,D20*
X158369000Y-86488000D03*
X158369000Y-89788000D03*
G04 #@! TD*
G04 #@! TO.C,D21*
X177419000Y-86488000D03*
X177419000Y-89788000D03*
G04 #@! TD*
G04 #@! TO.C,D22*
X49784000Y-114428000D03*
X49784000Y-117728000D03*
G04 #@! TD*
G04 #@! TO.C,D23*
X84582000Y-119887000D03*
X84582000Y-116587000D03*
G04 #@! TD*
G04 #@! TO.C,D24*
X87122000Y-116714000D03*
X87122000Y-120014000D03*
G04 #@! TD*
G04 #@! TO.C,D25*
X122555000Y-120395000D03*
X122555000Y-117095000D03*
G04 #@! TD*
G04 #@! TO.C,D26*
X139700000Y-107951000D03*
X139700000Y-111251000D03*
G04 #@! TD*
G04 #@! TO.C,D27*
X158877000Y-107824000D03*
X158877000Y-111124000D03*
G04 #@! TD*
G04 #@! TO.C,D28*
X177927000Y-107824000D03*
X177927000Y-111124000D03*
G04 #@! TD*
G04 #@! TO.C,D29*
X66548000Y-132208000D03*
X66548000Y-135508000D03*
G04 #@! TD*
G04 #@! TO.C,D30*
X85090000Y-135508000D03*
X85090000Y-132208000D03*
G04 #@! TD*
G04 #@! TO.C,D31*
X104457500Y-135762000D03*
X104457500Y-132462000D03*
G04 #@! TD*
G04 #@! TO.C,D32*
X123507500Y-135698500D03*
X123507500Y-132398500D03*
G04 #@! TD*
G04 #@! TO.C,D33*
X139573000Y-127890000D03*
X139573000Y-131190000D03*
G04 #@! TD*
G04 #@! TO.C,D34*
X158750000Y-131190000D03*
X158750000Y-127890000D03*
G04 #@! TD*
G04 #@! TO.C,D35*
X177927000Y-126874000D03*
X177927000Y-130174000D03*
G04 #@! TD*
D13*
G04 #@! TO.C,J1*
X50921920Y-60711080D03*
X50921920Y-63251080D03*
X50921920Y-65791080D03*
D14*
X50921920Y-68331080D03*
G04 #@! TD*
D15*
G04 #@! TO.C,Q1*
X85852000Y-96632640D03*
X84902000Y-99282640D03*
X86802000Y-99282640D03*
G04 #@! TD*
G04 #@! TO.C,Q2*
X84470200Y-111019200D03*
X86370200Y-111019200D03*
X85420200Y-113669200D03*
G04 #@! TD*
D16*
G04 #@! TO.C,U1*
X110825000Y-76305000D03*
X109725000Y-76305000D03*
X108625000Y-76305000D03*
X107525000Y-76305000D03*
X106425000Y-76305000D03*
X105325000Y-76305000D03*
X104225000Y-76305000D03*
X103125000Y-76305000D03*
X102025000Y-76305000D03*
X100925000Y-76305000D03*
X99825000Y-76305000D03*
X98725000Y-76305000D03*
D17*
X113775000Y-60605000D03*
X113775000Y-61705000D03*
X113775000Y-62805000D03*
X113775000Y-63905000D03*
X113775000Y-65005000D03*
X113775000Y-66105000D03*
X113775000Y-67205000D03*
X113775000Y-68305000D03*
X113775000Y-69405000D03*
X113775000Y-70505000D03*
X113775000Y-71605000D03*
X113775000Y-72705000D03*
X95775000Y-72705000D03*
X95775000Y-71605000D03*
X95775000Y-70505000D03*
X95775000Y-69405000D03*
X95775000Y-68305000D03*
X95775000Y-67205000D03*
X95775000Y-66105000D03*
X95775000Y-65005000D03*
X95775000Y-63905000D03*
X95775000Y-62805000D03*
X95775000Y-61705000D03*
X95775000Y-60605000D03*
G04 #@! TD*
M02*
