G04 #@! TF.GenerationSoftware,KiCad,Pcbnew,(5.0.0)*
G04 #@! TF.CreationDate,2018-09-07T18:20:46+03:00*
G04 #@! TF.ProjectId,PROJECT,50524F4A4543542E6B696361645F7063,rev?*
G04 #@! TF.SameCoordinates,Original*
G04 #@! TF.FileFunction,Profile,NP*
%FSLAX46Y46*%
G04 Gerber Fmt 4.6, Leading zero omitted, Abs format (unit mm)*
G04 Created by KiCad (PCBNEW (5.0.0)) date 09/07/18 18:20:46*
%MOMM*%
%LPD*%
G01*
G04 APERTURE LIST*
%ADD10C,0.150000*%
G04 APERTURE END LIST*
D10*
X47572718Y-119835718D02*
G75*
G03X51054000Y-123317000I3481282J0D01*
G01*
X51054000Y-124333000D02*
G75*
G03X47572718Y-127814282I0J-3481282D01*
G01*
X51028600Y-123317000D02*
X55346600Y-123317000D01*
X47574200Y-127812800D02*
X47574200Y-139446000D01*
X51028600Y-124333000D02*
X55321200Y-124333000D01*
X165785800Y-47548800D02*
X177546000Y-47548800D01*
X162331400Y-51028600D02*
X162331400Y-55295800D01*
X161340800Y-51003200D02*
X161340800Y-55295800D01*
X146761200Y-47523400D02*
X157861000Y-47523400D01*
X143281400Y-51003200D02*
X143281400Y-55295800D01*
X142290800Y-51028600D02*
X142290800Y-55295800D01*
X51054000Y-47548800D02*
X138836400Y-47548800D01*
X47574200Y-119837200D02*
X47574200Y-51028600D01*
X51054000Y-142900400D02*
X138887200Y-142900400D01*
X142367000Y-139420600D02*
X142367000Y-135128000D01*
X143383000Y-139446000D02*
X143383000Y-135178800D01*
X157937200Y-142900400D02*
X146862800Y-142900400D01*
X161417000Y-139420600D02*
X161417000Y-135128000D01*
X162433000Y-139446000D02*
X162433000Y-135128000D01*
X177520600Y-142900400D02*
X165887400Y-142900400D01*
X181000400Y-127838200D02*
X181000400Y-139420600D01*
X177520600Y-124333000D02*
X173253400Y-124333000D01*
X177520600Y-123317000D02*
X173253400Y-123317000D01*
X181000400Y-51028600D02*
X181000400Y-119837200D01*
X138809518Y-47547318D02*
G75*
G02X142290800Y-51028600I0J-3481282D01*
G01*
X143279918Y-51004682D02*
G75*
G02X146761200Y-47523400I3481282J0D01*
G01*
X157859518Y-47521918D02*
G75*
G02X161340800Y-51003200I0J-3481282D01*
G01*
X162329918Y-51030082D02*
G75*
G02X165811200Y-47548800I3481282J0D01*
G01*
X181001882Y-119835718D02*
G75*
G02X177520600Y-123317000I-3481282J0D01*
G01*
X181001882Y-127814282D02*
G75*
G03X177520600Y-124333000I-3481282J0D01*
G01*
X157935718Y-142901882D02*
G75*
G03X161417000Y-139420600I0J3481282D01*
G01*
X165914282Y-142901882D02*
G75*
G02X162433000Y-139420600I0J3481282D01*
G01*
X146864282Y-142901882D02*
G75*
G02X143383000Y-139420600I0J3481282D01*
G01*
X142368482Y-139419118D02*
G75*
G02X138887200Y-142900400I-3481282J0D01*
G01*
X47574200Y-51028600D02*
G75*
G02X51055482Y-47547318I3481282J0D01*
G01*
X177520600Y-47548800D02*
G75*
G02X181001882Y-51030082I0J-3481282D01*
G01*
X181000400Y-139420600D02*
G75*
G02X177519118Y-142901882I-3481282J0D01*
G01*
X51054000Y-142900400D02*
G75*
G02X47572718Y-139419118I0J3481282D01*
G01*
X59750960Y-123296680D02*
X58242200Y-123296680D01*
X59756040Y-124383800D02*
X58262520Y-124383800D01*
X59748080Y-123296680D02*
X75712520Y-123276360D01*
X76199280Y-123807600D02*
G75*
G02X75714520Y-124363480I-520320J-35560D01*
G01*
X57758240Y-123852560D02*
G75*
G02X58243000Y-123296680I520320J35560D01*
G01*
X58270560Y-124380880D02*
G75*
G02X57755320Y-123825000I20320J535560D01*
G01*
X75684040Y-123271280D02*
G75*
G02X76199280Y-123827160I-20320J-535560D01*
G01*
X59753160Y-124383800D02*
X75717600Y-124363480D01*
X95143080Y-123777120D02*
G75*
G02X94658320Y-124333000I-520320J-35560D01*
G01*
X94627840Y-123240800D02*
G75*
G02X95143080Y-123796680I-20320J-535560D01*
G01*
X78691880Y-123266200D02*
X94656320Y-123245880D01*
X78696960Y-124353320D02*
X94661400Y-124333000D01*
X78714360Y-124350400D02*
G75*
G02X78199120Y-123794520I20320J535560D01*
G01*
X78202040Y-123822080D02*
G75*
G02X78686800Y-123266200I520320J35560D01*
G01*
X113527840Y-123240800D02*
G75*
G02X114043080Y-123796680I-20320J-535560D01*
G01*
X114043080Y-123777120D02*
G75*
G02X113558320Y-124333000I-520320J-35560D01*
G01*
X97591880Y-123266200D02*
X113556320Y-123245880D01*
X97596960Y-124353320D02*
X113561400Y-124333000D01*
X97614360Y-124350400D02*
G75*
G02X97099120Y-123794520I20320J535560D01*
G01*
X97102040Y-123822080D02*
G75*
G02X97586800Y-123266200I520320J35560D01*
G01*
X132967940Y-123851720D02*
G75*
G02X132452700Y-124336480I-500000J15240D01*
G01*
X116493880Y-123328100D02*
X132478640Y-123328100D01*
X116017040Y-123845320D02*
G75*
G02X116501800Y-123330080I500000J15240D01*
G01*
X132484240Y-123332240D02*
G75*
G02X132969000Y-123817000I0J-484760D01*
G01*
X116532280Y-124335160D02*
G75*
G02X116017040Y-123819920I0J515240D01*
G01*
X116503500Y-124336480D02*
X132488260Y-124336480D01*
X151847780Y-123841560D02*
G75*
G02X151352860Y-124326320I-489840J5080D01*
G01*
X135383880Y-123337320D02*
X151378800Y-123327160D01*
X134907400Y-123852560D02*
G75*
G02X135412480Y-123337320I510160J5080D01*
G01*
X151343360Y-123327160D02*
G75*
G02X151848440Y-123811920I10160J-494920D01*
G01*
X135399400Y-124335160D02*
G75*
G02X134904480Y-123819920I10160J505080D01*
G01*
X135393500Y-124336480D02*
X151388420Y-124326320D01*
X154303500Y-124336480D02*
X170303500Y-124336480D01*
X154339600Y-124336100D02*
G75*
G02X153839600Y-123836100I0J500000D01*
G01*
X154293880Y-123328100D02*
X170293880Y-123328100D01*
X170767940Y-123836480D02*
G75*
G02X170267940Y-124336480I-500000J0D01*
G01*
X153839600Y-123828100D02*
G75*
G02X154339600Y-123328100I500000J0D01*
G01*
X170267940Y-123328480D02*
G75*
G02X170767940Y-123828480I0J-500000D01*
G01*
X142780640Y-55783100D02*
G75*
G02X142280640Y-55283100I0J500000D01*
G01*
X143288640Y-55283100D02*
G75*
G02X142788640Y-55783100I-500000J0D01*
G01*
X161838260Y-55785640D02*
G75*
G02X161338260Y-55285640I0J500000D01*
G01*
X162346260Y-55285640D02*
G75*
G02X161846260Y-55785640I-500000J0D01*
G01*
X143375380Y-78729320D02*
X143380460Y-77614260D01*
X142367000Y-78742020D02*
X142372080Y-77639660D01*
X142869920Y-77126580D02*
G75*
G02X143380080Y-77606260I15240J-494920D01*
G01*
X143375380Y-78733600D02*
X143370300Y-94718360D01*
X142851760Y-95212740D02*
G75*
G02X142361920Y-94692420I15240J505080D01*
G01*
X143367760Y-94733200D02*
G75*
G02X142877920Y-95212880I-484760J5080D01*
G01*
X142367000Y-78743220D02*
X142361920Y-94727980D01*
X142375000Y-77644880D02*
G75*
G02X142885160Y-77124560I515240J5080D01*
G01*
X142367000Y-58251420D02*
G75*
G02X142867000Y-57731100I510160J10160D01*
G01*
X142367000Y-59343220D02*
X142356840Y-75333060D01*
X143364840Y-75338280D02*
G75*
G02X142864840Y-75817960I-489840J10160D01*
G01*
X142856840Y-75817820D02*
G75*
G02X142356840Y-75297500I10160J510160D01*
G01*
X143375380Y-59333600D02*
X143365220Y-75323440D01*
X142875000Y-57731660D02*
G75*
G02X143375000Y-58211340I10160J-489840D01*
G01*
X142367000Y-59342020D02*
X142367000Y-58244740D01*
X143375380Y-59329320D02*
X143375380Y-58219340D01*
X143375000Y-113235980D02*
G75*
G02X142875000Y-113735980I-500000J0D01*
G01*
X142875380Y-96807640D02*
G75*
G02X143375380Y-97307640I0J-500000D01*
G01*
X142867000Y-113735980D02*
G75*
G02X142367000Y-113235980I0J500000D01*
G01*
X142367380Y-97307640D02*
G75*
G02X142867380Y-96807640I500000J0D01*
G01*
X143375380Y-97261920D02*
X143375380Y-113261920D01*
X142367000Y-97271540D02*
X142367000Y-113271540D01*
X143375380Y-116181720D02*
X143375380Y-132181720D01*
X143375000Y-132155780D02*
G75*
G02X142875000Y-132655780I-500000J0D01*
G01*
X142875380Y-115727440D02*
G75*
G02X143375380Y-116227440I0J-500000D01*
G01*
X142867000Y-132655780D02*
G75*
G02X142367000Y-132155780I0J500000D01*
G01*
X142367380Y-116227440D02*
G75*
G02X142867380Y-115727440I500000J0D01*
G01*
X142367000Y-116191340D02*
X142367000Y-132191340D01*
X162425380Y-59333600D02*
X162415220Y-75323440D01*
X162425380Y-78332800D02*
X162415220Y-94322640D01*
X161925000Y-58866000D02*
G75*
G02X162425000Y-59345680I10160J-489840D01*
G01*
X161417000Y-78342420D02*
X161406840Y-94332260D01*
X162425000Y-113235980D02*
G75*
G02X161925000Y-113735980I-500000J0D01*
G01*
X161906840Y-75817820D02*
G75*
G02X161406840Y-75297500I10160J510160D01*
G01*
X162414840Y-75338280D02*
G75*
G02X161914840Y-75817960I-489840J10160D01*
G01*
X161417000Y-59343220D02*
X161406840Y-75333060D01*
X161417000Y-59389240D02*
G75*
G02X161917000Y-58868920I510160J10160D01*
G01*
X161925000Y-77865200D02*
G75*
G02X162425000Y-78344880I10160J-489840D01*
G01*
X161417000Y-97271540D02*
X161417000Y-113271540D01*
X161925380Y-96807640D02*
G75*
G02X162425380Y-97307640I0J-500000D01*
G01*
X162414840Y-94337480D02*
G75*
G02X161914840Y-94817160I-489840J10160D01*
G01*
X161417380Y-97307640D02*
G75*
G02X161917380Y-96807640I500000J0D01*
G01*
X161906840Y-94817020D02*
G75*
G02X161406840Y-94296700I10160J510160D01*
G01*
X161917000Y-113735980D02*
G75*
G02X161417000Y-113235980I0J500000D01*
G01*
X162425380Y-97261920D02*
X162425380Y-113261920D01*
X162323400Y-132155780D02*
G75*
G02X161823400Y-132655780I-500000J0D01*
G01*
X161823780Y-115727440D02*
G75*
G02X162323780Y-116227440I0J-500000D01*
G01*
X161417000Y-78388440D02*
G75*
G02X161917000Y-77868120I510160J10160D01*
G01*
X161815400Y-132655780D02*
G75*
G02X161315400Y-132155780I0J500000D01*
G01*
X162323780Y-116181720D02*
X162323780Y-132181720D01*
X161315780Y-116227440D02*
G75*
G02X161815780Y-115727440I500000J0D01*
G01*
X161315400Y-116191340D02*
X161315400Y-132191340D01*
X172758480Y-123827160D02*
G75*
G02X173258480Y-123327160I500000J0D01*
G01*
X173258480Y-124335160D02*
G75*
G02X172758480Y-123835160I0J500000D01*
G01*
X55316120Y-123325000D02*
G75*
G02X55816120Y-123825000I0J-500000D01*
G01*
X55816120Y-123833000D02*
G75*
G02X55316120Y-124333000I-500000J0D01*
G01*
X142362300Y-135153400D02*
G75*
G02X142862300Y-134653400I500000J0D01*
G01*
X142870300Y-134653400D02*
G75*
G02X143370300Y-135153400I0J-500000D01*
G01*
X161419920Y-135155940D02*
G75*
G02X161919920Y-134655940I500000J0D01*
G01*
X161927920Y-134655940D02*
G75*
G02X162427920Y-135155940I0J-500000D01*
G01*
M02*
