M48
;DRILL file {KiCad (5.0.0)} date 09/21/18 23:36:38
;FORMAT={-:-/ absolute / inch / decimal}
FMAT,2
INCH,TZ
T1C0.0157
T2C0.0315
T3C0.0354
T4C0.0579
T5C0.0689
T6C0.1570
T7C0.2953
%
G90
G05
M72
T1
X2.0048Y-2.6902
X2.0168Y-3.2692
X2.3574Y-3.543
X2.6258Y-4.6996
X2.7125Y-4.5625
X2.87Y-4.6988
X2.9312Y-2.4128
X3.1904Y-4.716
X3.2204Y-2.3976
X3.2662Y-4.305
X3.2664Y-4.5244
X3.342Y-3.9092
X3.4004Y-4.3714
X3.4174Y-3.9088
X3.43Y-4.595
X3.44Y-2.32
X3.46Y-3.4375
X3.5458Y-4.7248
X3.8164Y-4.6424
X3.9362Y-4.7086
X3.9684Y-2.6034
X4.0775Y-4.5675
X4.1256Y-4.7014
X4.2132Y-5.345
X4.2972Y-4.635
X4.42Y-2.559
X4.4226Y-2.6036
X4.5984Y-2.7316
X4.6532Y-4.1254
X4.6872Y-3.475
X4.72Y-3.5275
X4.7262Y-2.8242
X4.743Y-3.1204
X4.752Y-3.2078
X4.785Y-3.415
X4.7992Y-2.8654
X4.8664Y-3.26
X4.872Y-2.9014
X4.9832Y-3.3586
X5.1108Y-1.9756
X5.1995Y-5.4647
X5.2122Y-3.1788
X5.226Y-2.4642
X5.4344Y-2.3958
X5.493Y-2.3774
X5.7432Y-3.3578
X5.7706Y-4.022
X5.9822Y-1.9564
X6.0072Y-2.5516
X6.0182Y-4.008
X6.0334Y-5.5022
X6.1286Y-2.312
X6.7988Y-2.5408
T2
X4.7909Y-1.9404
X4.8697Y-1.9404
X4.9484Y-1.9404
T3
X1.9311Y-2.39
X1.9311Y-2.49
X1.9311Y-2.59
X1.9311Y-2.69
T4
X5.1Y-2.15
X5.1516Y-2.0925
X5.3484Y-2.0728
X5.35Y-2.05
X5.85Y-4.4
X5.9016Y-4.3425
X6.0984Y-4.3228
X6.1Y-4.3
X4.6Y-3.6
X4.6575Y-3.6516
X4.6772Y-3.8484
X4.7Y-3.85
X4.6Y-4.35
X4.6575Y-4.4016
X4.6772Y-4.5984
X4.7Y-4.6
X5.1Y-4.4
X5.1516Y-4.3425
X5.3484Y-4.3228
X5.35Y-4.3
X3.1Y-3.6
X3.1575Y-3.6516
X3.1772Y-3.8484
X3.2Y-3.85
X2.1Y-2.15
X2.1516Y-2.0925
X2.3484Y-2.0728
X2.35Y-2.05
X5.85Y-2.9
X5.9016Y-2.8425
X6.0984Y-2.8228
X6.1Y-2.8
X2.85Y-2.9
X2.9016Y-2.8425
X3.0984Y-2.8228
X3.1Y-2.8
X6.6Y-5.15
X6.6516Y-5.0925
X6.8484Y-5.0728
X6.85Y-5.05
X6.6Y-3.65
X6.6516Y-3.5925
X6.8484Y-3.5728
X6.85Y-3.55
X5.85Y-5.15
X5.9016Y-5.0925
X6.0984Y-5.0728
X6.1Y-5.05
X2.05Y-3.65
X2.0728Y-3.6516
X2.0925Y-3.8484
X2.15Y-3.9
X2.85Y-2.15
X2.9016Y-2.0925
X3.0984Y-2.0728
X3.1Y-2.05
X5.85Y-2.15
X5.9016Y-2.0925
X6.0984Y-2.0728
X6.1Y-2.05
X3.6Y-5.15
X3.6516Y-5.0925
X3.8484Y-5.0728
X3.85Y-5.05
X3.55Y-4.4
X3.5728Y-4.4016
X3.5925Y-4.5984
X3.65Y-4.65
X5.1Y-5.15
X5.1516Y-5.0925
X5.3484Y-5.0728
X5.35Y-5.05
X3.55Y-2.9
X3.5728Y-2.9016
X3.5925Y-3.0984
X3.65Y-3.15
X4.6Y-2.1
X4.6575Y-2.1516
X4.6772Y-2.3484
X4.7Y-2.35
X4.35Y-5.15
X4.4016Y-5.0925
X4.5984Y-5.0728
X4.6Y-5.05
X2.05Y-4.4
X2.0728Y-4.4016
X2.0925Y-4.5984
X2.15Y-4.65
X5.1Y-2.9
X5.1516Y-2.8425
X5.3484Y-2.8228
X5.35Y-2.8
X3.55Y-2.15
X3.5728Y-2.1516
X3.5925Y-2.3484
X3.65Y-2.4
X3.55Y-3.65
X3.5728Y-3.6516
X3.5925Y-3.8484
X3.65Y-3.9
X3.1Y-4.35
X3.1575Y-4.4016
X3.1772Y-4.5984
X3.2Y-4.6
X6.6Y-2.15
X6.6516Y-2.0925
X6.8484Y-2.0728
X6.85Y-2.05
X6.6Y-2.9
X6.6516Y-2.8425
X6.8484Y-2.8228
X6.85Y-2.8
X2.85Y-5.15
X2.9016Y-5.0925
X3.0984Y-5.0728
X3.1Y-5.05
X4.4Y-3.2
X4.4016Y-3.1772
X4.5984Y-3.1575
X4.65Y-3.1
X5.85Y-3.65
X5.9016Y-3.5925
X6.0984Y-3.5728
X6.1Y-3.55
X2.1Y-2.9
X2.1516Y-2.8425
X2.3484Y-2.8228
X2.35Y-2.8
X6.6Y-4.4
X6.6516Y-4.3425
X6.8484Y-4.3228
X6.85Y-4.3
X2.1Y-5.15
X2.1516Y-5.0925
X2.3484Y-5.0728
X2.35Y-5.05
X5.1Y-3.65
X5.1516Y-3.5925
X5.3484Y-3.5728
X5.35Y-3.55
T5
X6.55Y-2.25
X6.95Y-2.25
X6.55Y-3.
X6.95Y-3.
X2.8Y-5.25
X3.2Y-5.25
X4.7Y-3.
X5.8Y-3.75
X6.2Y-3.75
X2.05Y-3.
X2.45Y-3.
X6.55Y-4.5
X6.95Y-4.5
X2.05Y-5.25
X2.45Y-5.25
X5.05Y-3.75
X5.45Y-3.75
X5.05Y-2.25
X5.45Y-2.25
X5.8Y-4.5
X6.2Y-4.5
X4.5Y-3.55
X4.5Y-3.95
X4.5Y-4.3
X4.5Y-4.7
X5.05Y-4.5
X5.45Y-4.5
X3.Y-3.55
X3.Y-3.95
X2.05Y-2.25
X2.45Y-2.25
X5.8Y-3.
X6.2Y-3.
X2.8Y-3.
X3.2Y-3.
X6.55Y-5.25
X6.95Y-5.25
X6.55Y-3.75
X6.95Y-3.75
X5.8Y-5.25
X6.2Y-5.25
X2.25Y-3.55
X2.25Y-3.95
X2.8Y-2.25
X3.2Y-2.25
X5.8Y-2.25
X6.2Y-2.25
X3.55Y-5.25
X3.95Y-5.25
X3.75Y-4.3
X3.75Y-4.7
X5.05Y-5.25
X5.45Y-5.25
X3.75Y-3.2
X4.5Y-2.05
X4.3Y-5.25
X4.7Y-5.25
X2.25Y-4.3
X2.25Y-4.7
X5.05Y-3.
X5.45Y-3.
X3.75Y-2.05
X3.75Y-3.55
X3.75Y-3.95
X3.Y-4.3
X3.Y-4.7
T6
X3.75Y-3.
X4.5Y-2.25
X4.5Y-5.25
X2.25Y-4.5
X5.25Y-3.
X3.75Y-2.25
X3.75Y-3.75
X3.Y-4.5
X6.75Y-2.25
X6.75Y-3.
X3.Y-5.25
X4.5Y-3.
X6.Y-3.75
X2.25Y-3.
X6.75Y-4.5
X2.25Y-5.25
X5.25Y-3.75
X5.25Y-2.25
X6.Y-4.5
X4.5Y-3.75
X4.5Y-4.5
X5.25Y-4.5
X3.Y-3.75
X2.25Y-2.25
X6.Y-3.
X3.Y-3.
X6.75Y-5.25
X6.75Y-3.75
X6.Y-5.25
X2.25Y-3.75
X3.Y-2.25
X6.Y-2.25
X3.75Y-5.25
X3.75Y-4.5
X5.25Y-5.25
T7
X6.3744Y-4.8742
X4.87Y-2.62
X3.37Y-4.125
X4.871Y-4.1298
X5.6232Y-2.6262
X2.63Y-4.94
X6.37Y-3.75
X5.62Y-4.87
X5.625Y-3.755
X4.12Y-4.935
X2.623Y-2.6258
X6.37Y-2.62
T0
M30
