<?xml version="1.0" encoding="UTF-8" standalone="no"?>
<!-- Generated by SVGo -->

<svg
   xmlns:dc="http://purl.org/dc/elements/1.1/"
   xmlns:cc="http://creativecommons.org/ns#"
   xmlns:rdf="http://www.w3.org/1999/02/22-rdf-syntax-ns#"
   xmlns:svg="http://www.w3.org/2000/svg"
   xmlns="http://www.w3.org/2000/svg"
   xmlns:sodipodi="http://sodipodi.sourceforge.net/DTD/sodipodi-0.dtd"
   xmlns:inkscape="http://www.inkscape.org/namespaces/inkscape"
   width="112.252mm"
   height="93.202mm"
   viewBox="0.000 0.000 112.252 93.202"
   version="1.1"
   id="svg44"
   sodipodi:docname="bottom plate.svg"
   inkscape:version="0.92.3 (2405546, 2018-03-11)"
   inkscape:export-filename="C:\Users\Gtrx\Documents\GitHub\Medusa\Plate\4x5\bottom plate.png"
   inkscape:export-xdpi="400"
   inkscape:export-ydpi="400">
  <metadata
     id="metadata50">
    <rdf:RDF>
      <cc:Work
         rdf:about="">
        <dc:format>image/svg+xml</dc:format>
        <dc:type
           rdf:resource="http://purl.org/dc/dcmitype/StillImage" />
      </cc:Work>
    </rdf:RDF>
  </metadata>
  <defs
     id="defs48" />
  <sodipodi:namedview
     pagecolor="#ffffff"
     bordercolor="#666666"
     borderopacity="1"
     objecttolerance="10"
     gridtolerance="10"
     guidetolerance="10"
     inkscape:pageopacity="0"
     inkscape:pageshadow="2"
     inkscape:window-width="1920"
     inkscape:window-height="1017"
     id="namedview46"
     showgrid="false"
     inkscape:zoom="2.6798422"
     inkscape:cx="284.14609"
     inkscape:cy="189.7671"
     inkscape:window-x="1912"
     inkscape:window-y="-8"
     inkscape:window-maximized="1"
     inkscape:current-layer="g60" />
  <polygon
     points="102.751,5.001 103.105,5.014 103.455,5.056 103.802,5.125 104.142,5.221 104.474,5.343 104.794,5.491 105.103,5.664 105.397,5.860 105.674,6.079 105.933,6.319 106.173,6.578 106.392,6.855 106.588,7.149 106.761,7.458 106.909,7.778 107.031,8.110 107.127,8.450 107.196,8.797 107.238,9.147 107.252,9.501 107.251,83.702 107.238,84.055 107.196,84.405 107.127,84.752 107.031,85.092 106.909,85.424 106.761,85.744 106.588,86.053 106.392,86.347 106.173,86.624 105.933,86.883 105.674,87.123 105.397,87.342 105.103,87.538 104.794,87.711 104.474,87.859 104.142,87.981 103.802,88.077 103.455,88.146 103.105,88.188 102.751,88.202 9.501,88.202 9.147,88.188 8.797,88.146 8.450,88.077 8.110,87.981 7.778,87.859 7.458,87.711 7.149,87.538 6.855,87.342 6.578,87.123 6.319,86.883 6.079,86.624 5.860,86.347 5.664,86.053 5.491,85.744 5.343,85.424 5.221,85.092 5.125,84.752 5.056,84.405 5.014,84.055 5.000,83.701 5.001,9.501 5.014,9.147 5.056,8.797 5.125,8.450 5.221,8.110 5.343,7.778 5.491,7.458 5.664,7.149 5.860,6.855 6.079,6.578 6.319,6.319 6.578,6.079 6.855,5.860 7.149,5.664 7.458,5.491 7.778,5.343 8.110,5.221 8.450,5.125 8.797,5.056 9.147,5.014 9.501,5.000"
     style="fill:none;stroke-width:0.050000mm;stroke:black"
     id="polygon2" />
  <g
     id="g60"
     transform="translate(100.94529,14.09359)">
    <polygon
       transform="translate(-181.03738,5.8033521)"
       id="polygon48-2"
       style="fill:none;stroke:#000000;stroke-width:0.05mm"
       points="107.75,8.55 108.075,8.498 108.368,8.349 108.6,8.117 108.749,7.824 108.801,7.5 108.749,7.175 108.6,6.882 108.368,6.65 108.075,6.501 107.75,6.45 107.426,6.501 107.133,6.65 106.901,6.882 106.752,7.175 106.7,7.5 106.752,7.824 106.901,8.117 107.133,8.349 107.426,8.498 " />
    <polygon
       transform="translate(-124.11696,5.8442479)"
       id="polygon48-1"
       style="fill:none;stroke:#000000;stroke-width:0.05mm"
       points="108.368,8.349 108.6,8.117 108.749,7.824 108.801,7.5 108.749,7.175 108.6,6.882 108.368,6.65 108.075,6.501 107.75,6.45 107.426,6.501 107.133,6.65 106.901,6.882 106.752,7.175 106.7,7.5 106.752,7.824 106.901,8.117 107.133,8.349 107.426,8.498 107.75,8.55 108.075,8.498 " />
    <polygon
       transform="translate(-161.98185,44.216887)"
       id="polygon48-16"
       style="fill:none;stroke:#000000;stroke-width:0.05mm"
       points="108.075,8.498 108.368,8.349 108.6,8.117 108.749,7.824 108.801,7.5 108.749,7.175 108.6,6.882 108.368,6.65 108.075,6.501 107.75,6.45 107.426,6.501 107.133,6.65 106.901,6.882 106.752,7.175 106.7,7.5 106.752,7.824 106.901,8.117 107.133,8.349 107.426,8.498 107.75,8.55 " />
    <polygon
       transform="translate(-124.03269,43.998614)"
       id="polygon48-0"
       style="fill:none;stroke:#000000;stroke-width:0.05mm"
       points="107.75,8.55 108.075,8.498 108.368,8.349 108.6,8.117 108.749,7.824 108.801,7.5 108.749,7.175 108.6,6.882 108.368,6.65 108.075,6.501 107.75,6.45 107.426,6.501 107.133,6.65 106.901,6.882 106.752,7.175 106.7,7.5 106.752,7.824 106.901,8.117 107.133,8.349 107.426,8.498 " />
  </g>
</svg>
